<svg width="3000" height="3000" viewBox="0 0 3000 3000" fill="none" xmlns="http://www.w3.org/2000/svg">
<rect width="3000" height="3000" fill="#1E1E1E"/>
<g clip-path="url(#clip0_0_1)">
<ellipse cx="1499.83" cy="1500" rx="772.826" ry="750" fill="#0A0708"/>
<g style="mix-blend-mode:hard-light" filter="url(#filter0_f_0_1)">
<path d="M1285.25 1218.8V1210.8H1277.25V1218.8H1285.25ZM1394.75 1218.8H1402.75V1210.8H1394.75V1218.8ZM1371.31 1680.22L1378.12 1684.42L1378.13 1684.4L1378.14 1684.39L1371.31 1680.22ZM1307.22 1738.82L1303.62 1731.67L1303.6 1731.68L1303.59 1731.69L1307.22 1738.82ZM1060.4 1687.91L1053.63 1692.18L1053.64 1692.19L1053.65 1692.21L1060.4 1687.91ZM1037.32 1595.26V1587.26H1029.32V1595.26H1037.32ZM1147.55 1595.26H1155.55V1587.26H1147.55V1595.26ZM1155.61 1641.77L1148.36 1645.16L1148.39 1645.22L1148.42 1645.29L1155.61 1641.77ZM1276.46 1634.81L1269.2 1631.46L1269.17 1631.52L1269.14 1631.58L1276.46 1634.81ZM1293.25 1588.3V1218.8H1277.25V1588.3H1293.25ZM1285.25 1226.8H1394.75V1210.8H1285.25V1226.8ZM1386.75 1218.8V1588.3H1402.75V1218.8H1386.75ZM1386.75 1588.3C1386.75 1622.76 1379.21 1651.9 1364.48 1676.06L1378.14 1684.39C1394.66 1657.28 1402.75 1625.14 1402.75 1588.3H1386.75ZM1364.5 1676.03C1349.66 1700.14 1329.42 1718.66 1303.62 1731.67L1310.82 1745.96C1339.22 1731.63 1361.71 1711.09 1378.12 1684.42L1364.5 1676.03ZM1303.59 1731.69C1277.99 1744.72 1248.98 1751.32 1216.4 1751.32V1767.32C1251.2 1767.32 1282.74 1760.25 1310.85 1745.95L1303.59 1731.69ZM1216.4 1751.32C1182.38 1751.32 1152.62 1745.62 1126.95 1734.41L1120.55 1749.08C1148.59 1761.31 1180.6 1767.32 1216.4 1767.32V1751.32ZM1126.95 1734.41C1101.52 1723.32 1081.65 1706.41 1067.14 1683.62L1053.65 1692.21C1069.9 1717.75 1092.27 1736.74 1120.55 1749.08L1126.95 1734.41ZM1067.16 1683.65C1052.79 1660.84 1045.32 1631.54 1045.32 1595.26H1029.32C1029.32 1633.69 1037.24 1666.16 1053.63 1692.18L1067.16 1683.65ZM1037.32 1603.26H1147.55V1587.26H1037.32V1603.26ZM1139.55 1595.26C1139.55 1615.39 1142.3 1632.21 1148.36 1645.16L1162.86 1638.38C1158.18 1628.38 1155.55 1614.19 1155.55 1595.26H1139.55ZM1148.42 1645.29C1154.73 1658.17 1163.89 1667.77 1175.97 1673.53L1182.85 1659.08C1174.43 1655.07 1167.72 1648.32 1162.8 1638.25L1148.42 1645.29ZM1175.97 1673.53C1187.55 1679.04 1201.12 1681.63 1216.4 1681.63V1665.63C1202.88 1665.63 1191.78 1663.34 1182.85 1659.08L1175.97 1673.53ZM1216.4 1681.63C1231.63 1681.63 1245.26 1678.01 1256.98 1670.47L1248.33 1657.01C1239.54 1662.66 1229.01 1665.63 1216.4 1665.63V1681.63ZM1256.98 1670.47C1268.73 1662.92 1277.62 1651.97 1283.78 1638.05L1269.14 1631.58C1264.07 1643.04 1257.09 1651.38 1248.33 1657.01L1256.98 1670.47ZM1283.72 1638.16C1290.19 1624.15 1293.25 1607.43 1293.25 1588.3H1277.25C1277.25 1605.8 1274.44 1620.09 1269.2 1631.46L1283.72 1638.16ZM1428.14 1661.91L1422.62 1656.13L1422.58 1656.16L1422.55 1656.19L1428.14 1661.91ZM1514.94 1661.91L1509.34 1667.63L1509.38 1667.67L1509.41 1667.7L1514.94 1661.91ZM1514.94 1740.28L1509.41 1734.5L1509.38 1734.53L1509.34 1734.56L1514.94 1740.28ZM1428.14 1740.28L1422.55 1746L1422.58 1746.03L1422.62 1746.07L1428.14 1740.28ZM1420.03 1701.1C1420.03 1687.53 1424.6 1676.56 1433.74 1667.63L1422.55 1656.19C1410.2 1668.26 1404.03 1683.42 1404.03 1701.1H1420.03ZM1433.67 1667.7C1442.89 1658.88 1455.3 1654.17 1471.72 1654.17V1638.17C1452.01 1638.17 1435.37 1643.95 1422.62 1656.13L1433.67 1667.7ZM1471.72 1654.17C1488.15 1654.17 1500.39 1658.88 1509.34 1667.63L1520.53 1656.19C1508 1643.94 1491.43 1638.17 1471.72 1638.17V1654.17ZM1509.41 1667.7C1518.77 1676.64 1523.42 1687.59 1523.42 1701.1H1539.42C1539.42 1683.36 1533.08 1668.18 1520.46 1656.13L1509.41 1667.7ZM1523.42 1701.1C1523.42 1714.61 1518.77 1725.56 1509.41 1734.5L1520.46 1746.07C1533.08 1734.01 1539.42 1718.84 1539.42 1701.1H1523.42ZM1509.34 1734.56C1500.39 1743.31 1488.15 1748.03 1471.72 1748.03V1764.03C1491.43 1764.03 1508 1758.25 1520.53 1746L1509.34 1734.56ZM1471.72 1748.03C1455.3 1748.03 1442.89 1743.31 1433.67 1734.5L1422.62 1746.07C1435.37 1758.25 1452.01 1764.03 1471.72 1764.03V1748.03ZM1433.74 1734.56C1424.6 1725.63 1420.03 1714.67 1420.03 1701.1H1404.03C1404.03 1718.78 1410.2 1733.93 1422.55 1746L1433.74 1734.56ZM1829.22 1586.84L1821.65 1589.44L1821.7 1589.58L1821.76 1589.73L1829.22 1586.84ZM1813.84 1565.6L1808.58 1571.63L1808.64 1571.68L1808.7 1571.73L1813.84 1565.6ZM1728.88 1526.41L1726.42 1534.03L1726.45 1534.04L1726.48 1534.05L1728.88 1526.41ZM1660.03 1500.05L1656.72 1507.33L1656.73 1507.34L1656.75 1507.34L1660.03 1500.05ZM1602.9 1465.99L1597.88 1472.22L1597.93 1472.26L1597.98 1472.3L1602.9 1465.99ZM1564.08 1420.21L1557.03 1423.99L1557.05 1424.03L1557.07 1424.06L1564.08 1420.21ZM1564.81 1299.36L1571.85 1303.17L1571.86 1303.15L1571.87 1303.13L1564.81 1299.36ZM1605.83 1252.49L1610.57 1258.93L1610.6 1258.91L1610.63 1258.89L1605.83 1252.49ZM1668.09 1222.09L1665.84 1214.42L1665.83 1214.42L1665.82 1214.42L1668.09 1222.09ZM1918.57 1290.94L1911.88 1295.32L1911.89 1295.34L1911.91 1295.36L1918.57 1290.94ZM1943.11 1375.54V1383.54H1951.11V1375.54H1943.11ZM1833.98 1375.54H1825.98V1383.54H1833.98V1375.54ZM1824.09 1334.52L1817.02 1338.27L1817.07 1338.36L1817.12 1338.44L1824.09 1334.52ZM1794.79 1306.32L1791.06 1313.39L1791.08 1313.41L1791.11 1313.42L1794.79 1306.32ZM1698.11 1304.86L1701.35 1312.17L1701.41 1312.15L1701.47 1312.12L1698.11 1304.86ZM1669.55 1327.93L1676.21 1332.37L1676.23 1332.33L1676.26 1332.29L1669.55 1327.93ZM1666.62 1384.69L1659.76 1388.81L1659.81 1388.89L1659.86 1388.97L1666.62 1384.69ZM1766.23 1439.62L1763.86 1447.26L1763.89 1447.27L1763.91 1447.28L1766.23 1439.62ZM1842.77 1469.29L1839.19 1476.44L1839.21 1476.45L1839.22 1476.46L1842.77 1469.29ZM1672.11 1749.07L1669.98 1756.78L1670.02 1756.79L1670.05 1756.8L1672.11 1749.07ZM1602.17 1717.21L1597.66 1723.82L1597.68 1723.83L1597.69 1723.84L1602.17 1717.21ZM1533.69 1585.01V1577.01H1525.69V1585.01H1533.69ZM1643.92 1585.01H1651.92V1577.01H1643.92V1585.01ZM1673.21 1654.95L1668.36 1661.31L1668.4 1661.34L1668.44 1661.37L1673.21 1654.95ZM1706.9 1670.33L1705 1678.1L1705.01 1678.11L1705.03 1678.11L1706.9 1670.33ZM1796.99 1667.04L1793.82 1659.69L1793.8 1659.7L1793.77 1659.72L1796.99 1667.04ZM1824.46 1644.7L1817.72 1640.38L1817.68 1640.44L1817.64 1640.51L1824.46 1644.7ZM1841.61 1612.47C1841.61 1602.13 1840.02 1592.59 1836.68 1583.95L1821.76 1589.73C1824.28 1596.23 1825.61 1603.77 1825.61 1612.47H1841.61ZM1836.78 1584.24C1833.54 1574.8 1827.44 1566.57 1818.98 1559.47L1808.7 1571.73C1815.37 1577.33 1819.53 1583.25 1821.65 1589.44L1836.78 1584.24ZM1819.09 1559.57C1810.75 1552.3 1799.4 1545.46 1785.35 1538.93L1778.61 1553.45C1791.9 1559.62 1801.79 1565.72 1808.58 1571.63L1819.09 1559.57ZM1785.35 1538.93C1771.24 1532.39 1753.19 1525.68 1731.28 1518.78L1726.48 1534.05C1748.02 1540.82 1765.37 1547.3 1778.61 1553.45L1785.35 1538.93ZM1731.34 1518.8C1707.43 1511.07 1684.75 1502.39 1663.31 1492.75L1656.75 1507.34C1678.76 1517.24 1701.99 1526.13 1726.42 1534.03L1731.34 1518.8ZM1663.34 1492.76C1642.36 1483.23 1623.87 1472.19 1607.82 1459.68L1597.98 1472.3C1615.14 1485.67 1634.73 1497.33 1656.72 1507.33L1663.34 1492.76ZM1607.92 1459.76C1592.32 1447.19 1580.08 1432.72 1571.09 1416.36L1557.07 1424.06C1567.12 1442.37 1580.76 1458.42 1597.88 1472.22L1607.92 1459.76ZM1571.14 1416.44C1562.58 1400.45 1558.17 1381.64 1558.17 1359.79H1542.17C1542.17 1383.83 1547.03 1405.31 1557.03 1423.99L1571.14 1416.44ZM1558.17 1359.79C1558.17 1338.79 1562.77 1319.97 1571.85 1303.17L1557.78 1295.56C1547.33 1314.89 1542.17 1336.35 1542.17 1359.79H1558.17ZM1571.87 1303.13C1581.05 1285.93 1593.91 1271.2 1610.57 1258.93L1601.09 1246.05C1582.6 1259.66 1568.11 1276.18 1557.76 1295.6L1571.87 1303.13ZM1610.63 1258.89C1627.35 1246.35 1647.22 1236.61 1670.36 1229.76L1665.82 1214.42C1641.1 1221.74 1619.46 1232.26 1601.03 1246.09L1610.63 1258.89ZM1670.33 1229.77C1693.68 1222.93 1719.4 1219.47 1747.55 1219.47V1203.47C1718.09 1203.47 1690.83 1207.09 1665.84 1214.42L1670.33 1229.77ZM1747.55 1219.47C1785.9 1219.47 1818.97 1226.38 1846.98 1239.92L1853.94 1225.51C1823.36 1210.73 1787.82 1203.47 1747.55 1203.47V1219.47ZM1846.98 1239.92C1875.11 1253.51 1896.64 1272 1911.88 1295.32L1925.27 1286.56C1908.28 1260.56 1884.4 1240.23 1853.94 1225.51L1846.98 1239.92ZM1911.91 1295.36C1927.33 1318.61 1935.11 1345.25 1935.11 1375.54H1951.11C1951.11 1342.34 1942.53 1312.58 1925.24 1286.52L1911.91 1295.36ZM1943.11 1367.54H1833.98V1383.54H1943.11V1367.54ZM1841.98 1375.54C1841.98 1358.76 1838.43 1343.7 1831.06 1330.6L1817.12 1338.44C1822.93 1348.78 1825.98 1361.06 1825.98 1375.54H1841.98ZM1831.16 1330.77C1823.98 1317.23 1812.96 1306.73 1798.48 1299.22L1791.11 1313.42C1803 1319.59 1811.51 1327.88 1817.02 1338.27L1831.16 1330.77ZM1798.53 1299.25C1784.11 1291.63 1766.36 1288.07 1745.72 1288.07V1304.07C1764.63 1304.07 1779.6 1307.34 1791.06 1313.39L1798.53 1299.25ZM1745.72 1288.07C1725.92 1288.07 1708.82 1291.11 1694.76 1297.59L1701.47 1312.12C1712.8 1306.89 1727.44 1304.07 1745.72 1304.07V1288.07ZM1694.88 1297.54C1681.04 1303.66 1670.19 1312.27 1662.84 1323.57L1676.26 1332.29C1681.61 1324.06 1689.8 1317.28 1701.35 1312.17L1694.88 1297.54ZM1662.89 1323.49C1655.63 1334.39 1652.03 1346.69 1652.03 1360.15H1668.03C1668.03 1349.7 1670.78 1340.51 1676.21 1332.37L1662.89 1323.49ZM1652.03 1360.15C1652.03 1370.55 1654.58 1380.17 1659.76 1388.81L1673.48 1380.57C1669.88 1374.57 1668.03 1367.82 1668.03 1360.15H1652.03ZM1659.86 1388.97C1665.2 1397.39 1672.86 1404.95 1682.53 1411.74L1691.73 1398.65C1683.33 1392.75 1677.32 1386.64 1673.38 1380.41L1659.86 1388.97ZM1682.53 1411.74C1692.13 1418.49 1703.76 1424.73 1717.32 1430.5L1723.59 1415.78C1710.78 1410.33 1700.19 1404.6 1691.73 1398.65L1682.53 1411.74ZM1717.32 1430.5C1730.81 1436.25 1746.33 1441.83 1763.86 1447.26L1768.6 1431.98C1751.46 1426.67 1736.47 1421.27 1723.59 1415.78L1717.32 1430.5ZM1763.91 1447.28C1792.63 1455.97 1817.7 1465.7 1839.19 1476.44L1846.35 1462.13C1823.89 1450.9 1797.94 1440.86 1768.55 1431.96L1763.91 1447.28ZM1839.22 1476.46C1860.91 1487.18 1878.8 1499.11 1893.02 1512.17L1903.84 1500.38C1888.28 1486.1 1869.06 1473.36 1846.31 1462.11L1839.22 1476.46ZM1893.02 1512.17C1907.15 1525.14 1917.7 1539.74 1924.79 1555.98L1939.46 1549.58C1931.41 1531.16 1919.5 1514.75 1903.84 1500.38L1893.02 1512.17ZM1924.79 1555.98C1931.85 1572.16 1935.48 1590.69 1935.48 1611.74H1951.48C1951.48 1588.84 1947.53 1568.07 1939.46 1549.58L1924.79 1555.98ZM1935.48 1611.74C1935.48 1633.87 1931.17 1653.39 1922.75 1670.46L1937.1 1677.54C1946.75 1657.98 1951.48 1635.99 1951.48 1611.74H1935.48ZM1922.75 1670.46C1914.3 1687.58 1902.09 1702.11 1885.97 1714.08L1895.51 1726.93C1913.58 1713.51 1927.48 1697.03 1937.1 1677.54L1922.75 1670.46ZM1885.97 1714.08C1869.78 1726.11 1850.32 1735.36 1827.44 1741.73L1831.73 1757.14C1856.21 1750.33 1877.52 1740.29 1895.51 1726.93L1885.97 1714.08ZM1827.44 1741.73C1804.57 1748.09 1778.82 1751.32 1750.12 1751.32V1767.32C1780 1767.32 1807.23 1763.96 1831.73 1757.14L1827.44 1741.73ZM1750.12 1751.32C1724.45 1751.32 1699.14 1748 1674.18 1741.34L1670.05 1756.8C1696.36 1763.81 1723.05 1767.32 1750.12 1767.32V1751.32ZM1674.24 1741.36C1649.4 1734.5 1626.88 1724.23 1606.64 1710.58L1597.69 1723.84C1619.44 1738.51 1643.56 1749.48 1669.98 1756.78L1674.24 1741.36ZM1606.68 1710.6C1586.94 1697.13 1571.17 1679.98 1559.32 1659.07L1545.4 1666.95C1558.45 1689.99 1575.89 1708.97 1597.66 1723.82L1606.68 1710.6ZM1559.32 1659.07C1547.67 1638.51 1541.69 1613.92 1541.69 1585.01H1525.69C1525.69 1616.16 1532.15 1643.57 1545.4 1666.95L1559.32 1659.07ZM1533.69 1593.01H1643.92V1577.01H1533.69V1593.01ZM1635.92 1585.01C1635.92 1602.39 1638.59 1617.61 1644.3 1630.39L1658.91 1623.86C1654.36 1613.68 1651.92 1600.83 1651.92 1585.01H1635.92ZM1644.3 1630.39C1649.93 1642.98 1657.94 1653.36 1668.36 1661.31L1678.07 1648.59C1669.93 1642.39 1663.53 1634.21 1658.91 1623.86L1644.3 1630.39ZM1668.44 1661.37C1678.92 1669.16 1691.15 1674.71 1705 1678.1L1708.81 1662.57C1696.78 1659.61 1686.55 1654.9 1677.99 1648.53L1668.44 1661.37ZM1705.03 1678.11C1718.91 1681.45 1733.95 1683.1 1750.12 1683.1V1667.1C1735.03 1667.1 1721.26 1665.56 1708.78 1662.56L1705.03 1678.11ZM1750.12 1683.1C1769.83 1683.1 1786.65 1680.33 1800.21 1674.36L1793.77 1659.72C1782.92 1664.49 1768.49 1667.1 1750.12 1667.1V1683.1ZM1800.16 1674.38C1813.79 1668.5 1824.38 1660.09 1831.27 1648.89L1817.64 1640.51C1812.82 1648.35 1805.09 1654.83 1793.82 1659.69L1800.16 1674.38ZM1831.19 1649.02C1838.17 1638.13 1841.61 1625.87 1841.61 1612.47H1825.61C1825.61 1623 1822.95 1632.23 1817.72 1640.38L1831.19 1649.02Z" fill="#FF5C00"/>
</g>
<g style="mix-blend-mode:hard-light" filter="url(#filter1_f_0_1)">
<path d="M1285.25 1218.8V1210.8H1277.25V1218.8H1285.25ZM1394.75 1218.8H1402.75V1210.8H1394.75V1218.8ZM1371.31 1680.22L1378.12 1684.42L1378.13 1684.4L1378.14 1684.39L1371.31 1680.22ZM1307.22 1738.82L1303.62 1731.67L1303.6 1731.68L1303.59 1731.69L1307.22 1738.82ZM1060.4 1687.91L1053.63 1692.18L1053.64 1692.19L1053.65 1692.21L1060.4 1687.91ZM1037.32 1595.26V1587.26H1029.32V1595.26H1037.32ZM1147.55 1595.26H1155.55V1587.26H1147.55V1595.26ZM1155.61 1641.77L1148.36 1645.16L1148.39 1645.22L1148.42 1645.29L1155.61 1641.77ZM1276.46 1634.81L1269.2 1631.46L1269.17 1631.52L1269.14 1631.58L1276.46 1634.81ZM1293.25 1588.3V1218.8H1277.25V1588.3H1293.25ZM1285.25 1226.8H1394.75V1210.8H1285.25V1226.8ZM1386.75 1218.8V1588.3H1402.75V1218.8H1386.75ZM1386.75 1588.3C1386.75 1622.76 1379.21 1651.9 1364.48 1676.06L1378.14 1684.39C1394.66 1657.28 1402.75 1625.14 1402.75 1588.3H1386.75ZM1364.5 1676.03C1349.66 1700.14 1329.42 1718.66 1303.62 1731.67L1310.82 1745.96C1339.22 1731.63 1361.71 1711.09 1378.12 1684.42L1364.5 1676.03ZM1303.59 1731.69C1277.99 1744.72 1248.98 1751.32 1216.4 1751.32V1767.32C1251.2 1767.32 1282.74 1760.25 1310.85 1745.95L1303.59 1731.69ZM1216.4 1751.32C1182.38 1751.32 1152.62 1745.62 1126.95 1734.41L1120.55 1749.08C1148.59 1761.31 1180.6 1767.32 1216.4 1767.32V1751.32ZM1126.95 1734.41C1101.52 1723.32 1081.65 1706.41 1067.14 1683.62L1053.65 1692.21C1069.9 1717.75 1092.27 1736.74 1120.55 1749.08L1126.95 1734.41ZM1067.16 1683.65C1052.79 1660.84 1045.32 1631.54 1045.32 1595.26H1029.32C1029.32 1633.69 1037.24 1666.16 1053.63 1692.18L1067.16 1683.65ZM1037.32 1603.26H1147.55V1587.26H1037.32V1603.26ZM1139.55 1595.26C1139.55 1615.39 1142.3 1632.21 1148.36 1645.16L1162.86 1638.38C1158.18 1628.38 1155.55 1614.19 1155.55 1595.26H1139.55ZM1148.42 1645.29C1154.73 1658.17 1163.89 1667.77 1175.97 1673.53L1182.85 1659.08C1174.43 1655.07 1167.72 1648.32 1162.8 1638.25L1148.42 1645.29ZM1175.97 1673.53C1187.55 1679.04 1201.12 1681.63 1216.4 1681.63V1665.63C1202.88 1665.63 1191.78 1663.34 1182.85 1659.08L1175.97 1673.53ZM1216.4 1681.63C1231.63 1681.63 1245.26 1678.01 1256.98 1670.47L1248.33 1657.01C1239.54 1662.66 1229.01 1665.63 1216.4 1665.63V1681.63ZM1256.98 1670.47C1268.73 1662.92 1277.62 1651.97 1283.78 1638.05L1269.14 1631.58C1264.07 1643.04 1257.09 1651.38 1248.33 1657.01L1256.98 1670.47ZM1283.72 1638.16C1290.19 1624.15 1293.25 1607.43 1293.25 1588.3H1277.25C1277.25 1605.8 1274.44 1620.09 1269.2 1631.46L1283.72 1638.16ZM1428.14 1661.91L1422.62 1656.13L1422.58 1656.16L1422.55 1656.19L1428.14 1661.91ZM1514.94 1661.91L1509.34 1667.63L1509.38 1667.67L1509.41 1667.7L1514.94 1661.91ZM1514.94 1740.28L1509.41 1734.5L1509.38 1734.53L1509.34 1734.56L1514.94 1740.28ZM1428.14 1740.28L1422.55 1746L1422.58 1746.03L1422.62 1746.07L1428.14 1740.28ZM1420.03 1701.1C1420.03 1687.53 1424.6 1676.56 1433.74 1667.63L1422.55 1656.19C1410.2 1668.26 1404.03 1683.42 1404.03 1701.1H1420.03ZM1433.67 1667.7C1442.89 1658.88 1455.3 1654.17 1471.72 1654.17V1638.17C1452.01 1638.17 1435.37 1643.95 1422.62 1656.13L1433.67 1667.7ZM1471.72 1654.17C1488.15 1654.17 1500.39 1658.88 1509.34 1667.63L1520.53 1656.19C1508 1643.94 1491.43 1638.17 1471.72 1638.17V1654.17ZM1509.41 1667.7C1518.77 1676.64 1523.42 1687.59 1523.42 1701.1H1539.42C1539.42 1683.36 1533.08 1668.18 1520.46 1656.13L1509.41 1667.7ZM1523.42 1701.1C1523.42 1714.61 1518.77 1725.56 1509.41 1734.5L1520.46 1746.07C1533.08 1734.01 1539.42 1718.84 1539.42 1701.1H1523.42ZM1509.34 1734.56C1500.39 1743.31 1488.15 1748.03 1471.72 1748.03V1764.03C1491.43 1764.03 1508 1758.25 1520.53 1746L1509.34 1734.56ZM1471.72 1748.03C1455.3 1748.03 1442.89 1743.31 1433.67 1734.5L1422.62 1746.07C1435.37 1758.25 1452.01 1764.03 1471.72 1764.03V1748.03ZM1433.74 1734.56C1424.6 1725.63 1420.03 1714.67 1420.03 1701.1H1404.03C1404.03 1718.78 1410.2 1733.93 1422.55 1746L1433.74 1734.56ZM1829.22 1586.84L1821.65 1589.44L1821.7 1589.58L1821.76 1589.73L1829.22 1586.84ZM1813.84 1565.6L1808.58 1571.63L1808.64 1571.68L1808.7 1571.73L1813.84 1565.6ZM1728.88 1526.41L1726.42 1534.03L1726.45 1534.04L1726.48 1534.05L1728.88 1526.41ZM1660.03 1500.05L1656.72 1507.33L1656.73 1507.34L1656.75 1507.34L1660.03 1500.05ZM1602.9 1465.99L1597.88 1472.22L1597.93 1472.26L1597.98 1472.3L1602.9 1465.99ZM1564.08 1420.21L1557.03 1423.99L1557.05 1424.03L1557.07 1424.06L1564.08 1420.21ZM1564.81 1299.36L1571.85 1303.17L1571.86 1303.15L1571.87 1303.13L1564.81 1299.36ZM1605.83 1252.49L1610.57 1258.93L1610.6 1258.91L1610.63 1258.89L1605.83 1252.49ZM1668.09 1222.09L1665.84 1214.42L1665.83 1214.42L1665.82 1214.42L1668.09 1222.09ZM1918.57 1290.94L1911.88 1295.32L1911.89 1295.34L1911.91 1295.36L1918.57 1290.94ZM1943.11 1375.54V1383.54H1951.11V1375.54H1943.11ZM1833.98 1375.54H1825.98V1383.54H1833.98V1375.54ZM1824.09 1334.52L1817.02 1338.27L1817.07 1338.36L1817.12 1338.44L1824.09 1334.52ZM1794.79 1306.32L1791.06 1313.39L1791.08 1313.41L1791.11 1313.42L1794.79 1306.32ZM1698.11 1304.86L1701.35 1312.17L1701.41 1312.15L1701.47 1312.12L1698.11 1304.86ZM1669.55 1327.93L1676.21 1332.37L1676.23 1332.33L1676.26 1332.29L1669.55 1327.93ZM1666.62 1384.69L1659.76 1388.81L1659.81 1388.89L1659.86 1388.97L1666.62 1384.69ZM1766.23 1439.62L1763.86 1447.26L1763.89 1447.27L1763.91 1447.28L1766.23 1439.62ZM1842.77 1469.29L1839.19 1476.44L1839.21 1476.45L1839.22 1476.46L1842.77 1469.29ZM1672.11 1749.07L1669.98 1756.78L1670.02 1756.79L1670.05 1756.8L1672.11 1749.07ZM1602.17 1717.21L1597.66 1723.82L1597.68 1723.83L1597.69 1723.84L1602.17 1717.21ZM1533.69 1585.01V1577.01H1525.69V1585.01H1533.69ZM1643.92 1585.01H1651.92V1577.01H1643.92V1585.01ZM1673.21 1654.95L1668.36 1661.31L1668.4 1661.34L1668.44 1661.37L1673.21 1654.95ZM1706.9 1670.33L1705 1678.1L1705.01 1678.11L1705.03 1678.11L1706.9 1670.33ZM1796.99 1667.04L1793.82 1659.69L1793.8 1659.7L1793.77 1659.72L1796.99 1667.04ZM1824.46 1644.7L1817.72 1640.38L1817.68 1640.44L1817.64 1640.51L1824.46 1644.7ZM1841.61 1612.47C1841.61 1602.13 1840.02 1592.59 1836.68 1583.95L1821.76 1589.73C1824.28 1596.23 1825.61 1603.77 1825.61 1612.47H1841.61ZM1836.78 1584.24C1833.54 1574.8 1827.44 1566.57 1818.98 1559.47L1808.7 1571.73C1815.37 1577.33 1819.53 1583.25 1821.65 1589.44L1836.78 1584.24ZM1819.09 1559.57C1810.75 1552.3 1799.4 1545.46 1785.35 1538.93L1778.61 1553.45C1791.9 1559.62 1801.79 1565.72 1808.58 1571.63L1819.09 1559.57ZM1785.35 1538.93C1771.24 1532.39 1753.19 1525.68 1731.28 1518.78L1726.48 1534.05C1748.02 1540.82 1765.37 1547.3 1778.61 1553.45L1785.35 1538.93ZM1731.34 1518.8C1707.43 1511.07 1684.75 1502.39 1663.31 1492.75L1656.75 1507.34C1678.76 1517.24 1701.99 1526.13 1726.42 1534.03L1731.34 1518.8ZM1663.34 1492.76C1642.36 1483.23 1623.87 1472.19 1607.82 1459.68L1597.98 1472.3C1615.14 1485.67 1634.73 1497.33 1656.72 1507.33L1663.34 1492.76ZM1607.92 1459.76C1592.32 1447.19 1580.08 1432.72 1571.09 1416.36L1557.07 1424.06C1567.12 1442.37 1580.76 1458.42 1597.88 1472.22L1607.92 1459.76ZM1571.14 1416.44C1562.58 1400.45 1558.17 1381.64 1558.17 1359.79H1542.17C1542.17 1383.83 1547.03 1405.31 1557.03 1423.99L1571.14 1416.44ZM1558.17 1359.79C1558.17 1338.79 1562.77 1319.97 1571.85 1303.17L1557.78 1295.56C1547.33 1314.89 1542.17 1336.35 1542.17 1359.79H1558.17ZM1571.87 1303.13C1581.05 1285.93 1593.91 1271.2 1610.57 1258.93L1601.09 1246.05C1582.6 1259.66 1568.11 1276.18 1557.76 1295.6L1571.87 1303.13ZM1610.63 1258.89C1627.35 1246.35 1647.22 1236.61 1670.36 1229.76L1665.82 1214.42C1641.1 1221.74 1619.46 1232.26 1601.03 1246.09L1610.63 1258.89ZM1670.33 1229.77C1693.68 1222.93 1719.4 1219.47 1747.55 1219.47V1203.47C1718.09 1203.47 1690.83 1207.09 1665.84 1214.42L1670.33 1229.77ZM1747.55 1219.47C1785.9 1219.47 1818.97 1226.38 1846.98 1239.92L1853.94 1225.51C1823.36 1210.73 1787.82 1203.47 1747.55 1203.47V1219.47ZM1846.98 1239.92C1875.11 1253.51 1896.64 1272 1911.88 1295.32L1925.27 1286.56C1908.28 1260.56 1884.4 1240.23 1853.94 1225.51L1846.98 1239.92ZM1911.91 1295.36C1927.33 1318.61 1935.11 1345.25 1935.11 1375.54H1951.11C1951.11 1342.34 1942.53 1312.58 1925.24 1286.52L1911.91 1295.36ZM1943.11 1367.54H1833.98V1383.54H1943.11V1367.54ZM1841.98 1375.54C1841.98 1358.76 1838.43 1343.7 1831.06 1330.6L1817.12 1338.44C1822.93 1348.78 1825.98 1361.06 1825.98 1375.54H1841.98ZM1831.16 1330.77C1823.98 1317.23 1812.96 1306.73 1798.48 1299.22L1791.11 1313.42C1803 1319.59 1811.51 1327.88 1817.02 1338.27L1831.16 1330.77ZM1798.53 1299.25C1784.11 1291.63 1766.36 1288.07 1745.72 1288.07V1304.07C1764.63 1304.07 1779.6 1307.34 1791.06 1313.39L1798.53 1299.25ZM1745.72 1288.07C1725.92 1288.07 1708.82 1291.11 1694.76 1297.59L1701.47 1312.12C1712.8 1306.89 1727.44 1304.07 1745.72 1304.07V1288.07ZM1694.88 1297.54C1681.04 1303.66 1670.19 1312.27 1662.84 1323.57L1676.26 1332.29C1681.61 1324.06 1689.8 1317.28 1701.35 1312.17L1694.88 1297.54ZM1662.89 1323.49C1655.63 1334.39 1652.03 1346.69 1652.03 1360.15H1668.03C1668.03 1349.7 1670.78 1340.51 1676.21 1332.37L1662.89 1323.49ZM1652.03 1360.15C1652.03 1370.55 1654.58 1380.17 1659.76 1388.81L1673.48 1380.57C1669.88 1374.57 1668.03 1367.82 1668.03 1360.15H1652.03ZM1659.86 1388.97C1665.2 1397.39 1672.86 1404.95 1682.53 1411.74L1691.73 1398.65C1683.33 1392.75 1677.32 1386.64 1673.38 1380.41L1659.86 1388.97ZM1682.53 1411.74C1692.13 1418.49 1703.76 1424.73 1717.32 1430.5L1723.59 1415.78C1710.78 1410.33 1700.19 1404.6 1691.73 1398.65L1682.53 1411.74ZM1717.32 1430.5C1730.81 1436.25 1746.33 1441.83 1763.86 1447.26L1768.6 1431.98C1751.46 1426.67 1736.47 1421.27 1723.59 1415.78L1717.32 1430.5ZM1763.91 1447.28C1792.63 1455.97 1817.7 1465.7 1839.19 1476.44L1846.35 1462.13C1823.89 1450.9 1797.94 1440.86 1768.55 1431.96L1763.91 1447.28ZM1839.22 1476.46C1860.91 1487.18 1878.8 1499.11 1893.02 1512.17L1903.84 1500.38C1888.28 1486.1 1869.06 1473.36 1846.31 1462.11L1839.22 1476.46ZM1893.02 1512.17C1907.15 1525.14 1917.7 1539.74 1924.79 1555.98L1939.46 1549.58C1931.41 1531.16 1919.5 1514.75 1903.84 1500.38L1893.02 1512.17ZM1924.79 1555.98C1931.85 1572.16 1935.48 1590.69 1935.48 1611.74H1951.48C1951.48 1588.84 1947.53 1568.07 1939.46 1549.58L1924.79 1555.98ZM1935.48 1611.74C1935.48 1633.87 1931.17 1653.39 1922.75 1670.46L1937.1 1677.54C1946.75 1657.98 1951.48 1635.99 1951.48 1611.74H1935.48ZM1922.75 1670.46C1914.3 1687.58 1902.09 1702.11 1885.97 1714.08L1895.51 1726.93C1913.58 1713.51 1927.48 1697.03 1937.1 1677.54L1922.75 1670.46ZM1885.97 1714.08C1869.78 1726.11 1850.32 1735.36 1827.44 1741.73L1831.73 1757.14C1856.21 1750.33 1877.52 1740.29 1895.51 1726.93L1885.97 1714.08ZM1827.44 1741.73C1804.57 1748.09 1778.82 1751.32 1750.12 1751.32V1767.32C1780 1767.32 1807.23 1763.96 1831.73 1757.14L1827.44 1741.73ZM1750.12 1751.32C1724.45 1751.32 1699.14 1748 1674.18 1741.34L1670.05 1756.8C1696.36 1763.81 1723.05 1767.32 1750.12 1767.32V1751.32ZM1674.24 1741.36C1649.4 1734.5 1626.88 1724.23 1606.64 1710.58L1597.69 1723.84C1619.44 1738.51 1643.56 1749.48 1669.98 1756.78L1674.24 1741.36ZM1606.68 1710.6C1586.94 1697.13 1571.17 1679.98 1559.32 1659.07L1545.4 1666.95C1558.45 1689.99 1575.89 1708.97 1597.66 1723.82L1606.68 1710.6ZM1559.32 1659.07C1547.67 1638.51 1541.69 1613.92 1541.69 1585.01H1525.69C1525.69 1616.16 1532.15 1643.57 1545.4 1666.95L1559.32 1659.07ZM1533.69 1593.01H1643.92V1577.01H1533.69V1593.01ZM1635.92 1585.01C1635.92 1602.39 1638.59 1617.61 1644.3 1630.39L1658.91 1623.86C1654.36 1613.68 1651.92 1600.83 1651.92 1585.01H1635.92ZM1644.3 1630.39C1649.93 1642.98 1657.94 1653.36 1668.36 1661.31L1678.07 1648.59C1669.93 1642.39 1663.53 1634.21 1658.91 1623.86L1644.3 1630.39ZM1668.44 1661.37C1678.92 1669.16 1691.15 1674.71 1705 1678.1L1708.81 1662.57C1696.78 1659.61 1686.55 1654.9 1677.99 1648.53L1668.44 1661.37ZM1705.03 1678.11C1718.91 1681.45 1733.95 1683.1 1750.12 1683.1V1667.1C1735.03 1667.1 1721.26 1665.56 1708.78 1662.56L1705.03 1678.11ZM1750.12 1683.1C1769.83 1683.1 1786.65 1680.33 1800.21 1674.36L1793.77 1659.72C1782.92 1664.49 1768.49 1667.1 1750.12 1667.1V1683.1ZM1800.16 1674.38C1813.79 1668.5 1824.38 1660.09 1831.27 1648.89L1817.64 1640.51C1812.82 1648.35 1805.09 1654.83 1793.82 1659.69L1800.16 1674.38ZM1831.19 1649.02C1838.17 1638.13 1841.61 1625.87 1841.61 1612.47H1825.61C1825.61 1623 1822.95 1632.23 1817.72 1640.38L1831.19 1649.02Z" fill="#FF0000" fill-opacity="0.5"/>
</g>
<g style="mix-blend-mode:hard-light" filter="url(#filter2_ddi_0_1)">
<path d="M1277.31 1226.74V1224.24H1274.81V1226.74H1277.31ZM1386.8 1226.74H1389.3V1224.24H1386.8V1226.74ZM1363.37 1688.17L1365.49 1689.48L1365.5 1689.47L1363.37 1688.17ZM1299.28 1746.76L1298.15 1744.53L1298.14 1744.53L1299.28 1746.76ZM1052.45 1695.86L1050.34 1697.19L1050.34 1697.2L1052.45 1695.86ZM1029.38 1603.2V1600.7H1026.88V1603.2H1029.38ZM1139.61 1603.2H1142.11V1600.7H1139.61V1603.2ZM1147.67 1649.71L1145.4 1650.77L1145.41 1650.79L1145.42 1650.81L1147.67 1649.71ZM1268.52 1642.76L1266.25 1641.71L1266.24 1641.73L1266.23 1641.74L1268.52 1642.76ZM1279.81 1596.25V1226.74H1274.81V1596.25H1279.81ZM1277.31 1229.24H1386.8V1224.24H1277.31V1229.24ZM1384.3 1226.74V1596.25H1389.3V1226.74H1384.3ZM1384.3 1596.25C1384.3 1631.52 1376.58 1661.69 1361.23 1686.86L1365.5 1689.47C1381.41 1663.37 1389.3 1632.26 1389.3 1596.25H1384.3ZM1361.24 1686.86C1345.86 1711.84 1324.85 1731.06 1298.15 1744.53L1300.4 1748.99C1327.91 1735.12 1349.62 1715.27 1365.49 1689.48L1361.24 1686.86ZM1298.14 1744.53C1271.68 1758 1241.8 1764.77 1208.46 1764.77V1769.77C1242.5 1769.77 1273.17 1762.86 1300.41 1748.99L1298.14 1744.53ZM1208.46 1764.77C1173.83 1764.77 1143.29 1758.96 1116.81 1747.4L1114.81 1751.98C1142.03 1763.86 1173.27 1769.77 1208.46 1769.77V1764.77ZM1116.81 1747.4C1090.4 1735.87 1069.67 1718.25 1054.56 1694.51L1050.34 1697.2C1066 1721.8 1087.51 1740.07 1114.81 1751.98L1116.81 1747.4ZM1054.57 1694.52C1039.5 1670.61 1031.88 1640.22 1031.88 1603.2H1026.88C1026.88 1640.89 1034.64 1672.27 1050.34 1697.19L1054.57 1694.52ZM1029.38 1605.7H1139.61V1600.7H1029.38V1605.7ZM1137.11 1603.2C1137.11 1622.92 1139.82 1638.84 1145.4 1650.77L1149.93 1648.65C1144.78 1637.64 1142.11 1622.55 1142.11 1603.2H1137.11ZM1145.42 1650.81C1151.25 1662.73 1159.57 1671.35 1170.4 1676.51L1172.55 1671.99C1162.86 1667.38 1155.31 1659.65 1149.91 1648.61L1145.42 1650.81ZM1170.4 1676.51C1181.06 1681.59 1193.78 1684.07 1208.46 1684.07V1679.07C1194.33 1679.07 1182.39 1676.68 1172.55 1671.99L1170.4 1676.51ZM1208.46 1684.07C1222.78 1684.07 1235.35 1680.68 1246.06 1673.79L1243.36 1669.58C1233.57 1675.88 1221.96 1679.07 1208.46 1679.07V1684.07ZM1246.06 1673.79C1256.79 1666.9 1265.02 1656.85 1270.8 1643.77L1266.23 1641.74C1260.78 1654.06 1253.15 1663.29 1243.36 1669.58L1246.06 1673.79ZM1270.79 1643.8C1276.84 1630.69 1279.81 1614.81 1279.81 1596.25H1274.81C1274.81 1614.3 1271.92 1629.43 1266.25 1641.71L1270.79 1643.8ZM1420.2 1669.86L1418.47 1668.05L1418.46 1668.06L1418.45 1668.07L1420.2 1669.86ZM1506.99 1669.86L1505.25 1671.64L1505.26 1671.65L1505.27 1671.66L1506.99 1669.86ZM1506.99 1748.22L1505.27 1746.42L1505.26 1746.43L1505.25 1746.44L1506.99 1748.22ZM1420.2 1748.22L1418.45 1750.01L1418.46 1750.02L1418.47 1750.03L1420.2 1748.22ZM1406.59 1709.04C1406.59 1694.06 1411.71 1681.65 1421.95 1671.64L1418.45 1668.07C1407.21 1679.06 1401.59 1692.77 1401.59 1709.04H1406.59ZM1421.93 1671.66C1432.36 1661.69 1446.23 1656.61 1463.78 1656.61V1651.61C1445.2 1651.61 1430.01 1657.02 1418.47 1668.05L1421.93 1671.66ZM1463.78 1656.61C1481.33 1656.61 1495.06 1661.69 1505.25 1671.64L1508.74 1668.07C1497.44 1657.02 1482.36 1651.61 1463.78 1651.61V1656.61ZM1505.27 1671.66C1515.74 1681.67 1520.97 1694.08 1520.97 1709.04H1525.97C1525.97 1692.75 1520.22 1679.03 1508.72 1668.05L1505.27 1671.66ZM1520.97 1709.04C1520.97 1724 1515.74 1736.41 1505.27 1746.42L1508.72 1750.03C1520.22 1739.05 1525.97 1725.33 1525.97 1709.04H1520.97ZM1505.25 1746.44C1495.06 1756.39 1481.33 1761.47 1463.78 1761.47V1766.47C1482.36 1766.47 1497.44 1761.06 1508.74 1750.01L1505.25 1746.44ZM1463.78 1761.47C1446.23 1761.47 1432.36 1756.39 1421.93 1746.42L1418.47 1750.03C1430.01 1761.06 1445.2 1766.47 1463.78 1766.47V1761.47ZM1421.95 1746.44C1411.71 1736.43 1406.59 1724.02 1406.59 1709.04H1401.59C1401.59 1725.31 1407.21 1739.02 1418.45 1750.01L1421.95 1746.44ZM1821.28 1594.78L1818.91 1595.59L1818.93 1595.64L1818.94 1595.68L1821.28 1594.78ZM1805.89 1573.54L1804.25 1575.43L1804.27 1575.44L1804.29 1575.46L1805.89 1573.54ZM1720.93 1534.36L1720.16 1536.74L1720.17 1536.74L1720.18 1536.74L1720.93 1534.36ZM1652.09 1507.99L1651.05 1510.27L1651.06 1510.27L1652.09 1507.99ZM1594.96 1473.93L1593.39 1475.88L1593.4 1475.89L1593.42 1475.9L1594.96 1473.93ZM1556.14 1428.16L1553.93 1429.34L1553.94 1429.35L1553.95 1429.36L1556.14 1428.16ZM1556.87 1307.31L1559.07 1308.5L1559.08 1308.48L1556.87 1307.31ZM1597.89 1260.43L1599.37 1262.44L1599.38 1262.44L1599.39 1262.43L1597.89 1260.43ZM1660.14 1230.04L1659.44 1227.64L1659.43 1227.64L1660.14 1230.04ZM1910.63 1298.88L1908.54 1300.25L1908.54 1300.26L1908.55 1300.27L1910.63 1298.88ZM1935.17 1383.48V1385.98H1937.67V1383.48H1935.17ZM1826.04 1383.48H1823.54V1385.98H1826.04V1383.48ZM1816.15 1342.46L1813.94 1343.63L1813.95 1343.66L1813.97 1343.69L1816.15 1342.46ZM1786.85 1314.26L1785.68 1316.47L1785.69 1316.48L1785.7 1316.48L1786.85 1314.26ZM1690.17 1312.8L1691.18 1315.09L1691.2 1315.08L1691.22 1315.07L1690.17 1312.8ZM1661.61 1335.87L1663.69 1337.26L1663.7 1337.25L1663.7 1337.23L1661.61 1335.87ZM1658.68 1392.63L1656.53 1393.92L1656.55 1393.95L1656.57 1393.97L1658.68 1392.63ZM1758.29 1447.57L1757.55 1449.95L1757.56 1449.96L1757.56 1449.96L1758.29 1447.57ZM1834.83 1477.23L1833.71 1479.46L1833.72 1479.47L1834.83 1477.23ZM1664.17 1757.01L1663.51 1759.42L1663.52 1759.43L1663.53 1759.43L1664.17 1757.01ZM1594.22 1725.15L1592.82 1727.22L1592.83 1727.23L1594.22 1725.15ZM1525.74 1592.95V1590.45H1523.24V1592.95H1525.74ZM1635.97 1592.95H1638.47V1590.45H1635.97V1592.95ZM1665.27 1662.9L1663.75 1664.88L1663.77 1664.89L1663.78 1664.9L1665.27 1662.9ZM1698.96 1678.28L1698.37 1680.71L1698.38 1680.71L1698.96 1678.28ZM1789.05 1674.98L1788.06 1672.69L1788.05 1672.69L1788.04 1672.69L1789.05 1674.98ZM1816.51 1652.64L1814.41 1651.29L1814.4 1651.31L1814.39 1651.33L1816.51 1652.64ZM1828.17 1620.42C1828.17 1610.64 1826.67 1601.78 1823.61 1593.88L1818.94 1595.68C1821.74 1602.92 1823.17 1611.15 1823.17 1620.42H1828.17ZM1823.64 1593.97C1820.78 1585.65 1815.35 1578.21 1807.5 1571.63L1804.29 1575.46C1811.58 1581.57 1816.4 1588.29 1818.91 1595.59L1823.64 1593.97ZM1807.54 1571.66C1799.73 1564.85 1788.88 1558.27 1775.09 1551.87L1772.98 1556.4C1786.54 1562.69 1796.93 1569.05 1804.25 1575.43L1807.54 1571.66ZM1775.09 1551.87C1761.28 1545.46 1743.47 1538.83 1721.68 1531.97L1720.18 1536.74C1741.86 1543.56 1759.44 1550.11 1772.98 1556.4L1775.09 1551.87ZM1721.7 1531.98C1697.61 1524.19 1674.75 1515.44 1653.11 1505.71L1651.06 1510.27C1672.88 1520.08 1695.91 1528.9 1720.16 1536.74L1721.7 1531.98ZM1653.12 1505.71C1631.79 1496.02 1612.92 1484.77 1596.49 1471.96L1593.42 1475.9C1610.19 1488.98 1629.41 1500.43 1651.05 1510.27L1653.12 1505.71ZM1596.53 1471.99C1580.41 1458.99 1567.68 1443.98 1558.33 1426.95L1553.95 1429.36C1563.64 1447 1576.79 1462.5 1593.39 1475.88L1596.53 1471.99ZM1558.34 1426.98C1549.29 1410.06 1544.72 1390.34 1544.72 1367.73H1539.72C1539.72 1391.02 1544.43 1411.58 1553.93 1429.34L1558.34 1426.98ZM1544.72 1367.73C1544.72 1345.89 1549.52 1326.17 1559.07 1308.5L1554.67 1306.12C1544.69 1324.58 1539.72 1345.13 1539.72 1367.73H1544.72ZM1559.08 1308.48C1568.66 1290.52 1582.08 1275.17 1599.37 1262.44L1596.4 1258.42C1578.54 1271.57 1564.62 1287.47 1554.67 1306.13L1559.08 1308.48ZM1599.39 1262.43C1616.7 1249.45 1637.17 1239.44 1660.85 1232.43L1659.43 1227.64C1635.26 1234.79 1614.23 1245.05 1596.39 1258.43L1599.39 1262.43ZM1660.85 1232.44C1684.76 1225.43 1711.01 1221.92 1739.61 1221.92V1216.92C1710.6 1216.92 1683.87 1220.48 1659.44 1227.64L1660.85 1232.44ZM1739.61 1221.92C1778.62 1221.92 1812.53 1228.94 1841.43 1242.91L1843.6 1238.41C1813.9 1224.05 1779.22 1216.92 1739.61 1216.92V1221.92ZM1841.43 1242.91C1870.36 1256.89 1892.7 1276.01 1908.54 1300.25L1912.72 1297.52C1896.34 1272.44 1873.27 1252.74 1843.6 1238.41L1841.43 1242.91ZM1908.55 1300.27C1924.61 1324.48 1932.67 1352.19 1932.67 1383.48H1937.67C1937.67 1351.29 1929.36 1322.6 1912.71 1297.5L1908.55 1300.27ZM1935.17 1380.98H1826.04V1385.98H1935.17V1380.98ZM1828.54 1383.48C1828.54 1367.49 1825.16 1353.39 1818.33 1341.24L1813.97 1343.69C1820.32 1354.98 1823.54 1368.21 1823.54 1383.48H1828.54ZM1818.36 1341.29C1811.75 1328.84 1801.59 1319.09 1788 1312.04L1785.7 1316.48C1798.48 1323.11 1807.85 1332.16 1813.94 1343.63L1818.36 1341.29ZM1788.02 1312.05C1774.62 1304.97 1757.83 1301.51 1737.78 1301.51V1306.51C1757.28 1306.51 1773.21 1309.88 1785.68 1316.47L1788.02 1312.05ZM1737.78 1301.51C1718.5 1301.51 1702.24 1304.47 1689.12 1310.53L1691.22 1315.07C1703.49 1309.41 1718.97 1306.51 1737.78 1306.51V1301.51ZM1689.16 1310.51C1676.11 1316.29 1666.17 1324.26 1659.51 1334.51L1663.7 1337.23C1669.74 1327.95 1678.85 1320.54 1691.18 1315.09L1689.16 1310.51ZM1659.53 1334.48C1652.89 1344.44 1649.59 1355.66 1649.59 1368.1H1654.59C1654.59 1356.6 1657.63 1346.35 1663.69 1337.26L1659.53 1334.48ZM1649.59 1368.1C1649.59 1377.56 1651.89 1386.18 1656.53 1393.92L1660.82 1391.35C1656.67 1384.43 1654.59 1376.7 1654.59 1368.1H1649.59ZM1656.57 1393.97C1661.42 1401.64 1668.52 1408.7 1677.75 1415.19L1680.62 1411.1C1671.79 1404.89 1665.21 1398.28 1660.79 1391.3L1656.57 1393.97ZM1677.75 1415.19C1686.96 1421.66 1698.23 1427.72 1711.53 1433.39L1713.49 1428.79C1700.42 1423.22 1689.48 1417.32 1680.62 1411.1L1677.75 1415.19ZM1711.53 1433.39C1724.81 1439.04 1740.15 1444.56 1757.55 1449.95L1759.03 1445.18C1741.75 1439.83 1726.58 1434.36 1713.49 1428.79L1711.53 1433.39ZM1757.56 1449.96C1786.51 1458.72 1811.89 1468.55 1833.71 1479.46L1835.94 1474.99C1813.82 1463.93 1788.17 1453.99 1759.01 1445.17L1757.56 1449.96ZM1833.72 1479.47C1855.77 1490.37 1874.11 1502.58 1888.8 1516.06L1892.18 1512.37C1877.08 1498.51 1858.32 1486.06 1835.93 1474.99L1833.72 1479.47ZM1888.8 1516.06C1903.45 1529.51 1914.47 1544.73 1921.89 1561.72L1926.47 1559.72C1918.75 1542.05 1907.31 1526.26 1892.18 1512.37L1888.8 1516.06ZM1921.89 1561.72C1929.3 1578.7 1933.03 1598 1933.03 1619.68H1938.03C1938.03 1597.42 1934.2 1577.42 1926.47 1559.72L1921.89 1561.72ZM1933.03 1619.68C1933.03 1642.55 1928.58 1662.91 1919.74 1680.83L1924.23 1683.05C1933.45 1664.35 1938.03 1643.21 1938.03 1619.68H1933.03ZM1919.74 1680.83C1910.89 1698.77 1898.09 1713.97 1881.31 1726.44L1884.29 1730.46C1901.68 1717.53 1915.01 1701.73 1924.23 1683.05L1919.74 1680.83ZM1881.31 1726.44C1864.5 1738.93 1844.4 1748.45 1820.97 1754.97L1822.31 1759.79C1846.24 1753.13 1866.92 1743.36 1884.29 1730.46L1881.31 1726.44ZM1820.97 1754.97C1797.54 1761.49 1771.29 1764.77 1742.17 1764.77V1769.77C1771.66 1769.77 1798.38 1766.45 1822.31 1759.79L1820.97 1754.97ZM1742.17 1764.77C1716.03 1764.77 1690.24 1761.38 1664.82 1754.6L1663.53 1759.43C1689.37 1766.32 1715.59 1769.77 1742.17 1769.77V1764.77ZM1664.84 1754.6C1639.45 1747.59 1616.38 1737.08 1595.62 1723.08L1592.83 1727.23C1614.06 1741.54 1637.62 1752.27 1663.51 1759.42L1664.84 1754.6ZM1595.63 1723.09C1575.2 1709.14 1558.86 1691.36 1546.59 1669.72L1542.24 1672.19C1554.88 1694.49 1571.75 1712.84 1592.82 1727.22L1595.63 1723.09ZM1546.59 1669.72C1534.39 1648.19 1528.24 1622.63 1528.24 1592.95H1523.24C1523.24 1623.33 1529.54 1649.77 1542.24 1672.19L1546.59 1669.72ZM1525.74 1595.45H1635.97V1590.45H1525.74V1595.45ZM1633.47 1592.95C1633.47 1609.8 1636.07 1624.2 1641.38 1636.09L1645.95 1634.05C1641 1622.98 1638.47 1609.31 1638.47 1592.95H1633.47ZM1641.38 1636.09C1646.66 1647.91 1654.12 1657.53 1663.75 1664.88L1666.79 1660.91C1657.87 1654.1 1650.92 1645.17 1645.95 1634.05L1641.38 1636.09ZM1663.78 1664.9C1673.6 1672.21 1685.14 1677.46 1698.37 1680.71L1699.56 1675.85C1686.9 1672.75 1675.98 1667.75 1666.76 1660.89L1663.78 1664.9ZM1698.38 1680.71C1711.78 1683.93 1726.38 1685.54 1742.17 1685.54V1680.54C1726.72 1680.54 1712.51 1678.97 1699.55 1675.85L1698.38 1680.71ZM1742.17 1685.54C1761.43 1685.54 1777.43 1682.83 1790.06 1677.27L1788.04 1672.69C1776.26 1677.88 1761.01 1680.54 1742.17 1680.54V1685.54ZM1790.04 1677.28C1802.86 1671.75 1812.46 1664 1818.64 1653.95L1814.39 1651.33C1808.85 1660.33 1800.14 1667.48 1788.06 1672.69L1790.04 1677.28ZM1818.62 1653.99C1825 1644.04 1828.17 1632.83 1828.17 1620.42H1823.17C1823.17 1631.93 1820.24 1642.2 1814.41 1651.29L1818.62 1653.99Z" fill="#FF0000" fill-opacity="0.05"/>
</g>
<g filter="url(#filter3_f_0_1)">
<path d="M1285.25 1218.8V1210.8H1277.25V1218.8H1285.25ZM1394.75 1218.8H1402.75V1210.8H1394.75V1218.8ZM1371.31 1680.22L1378.12 1684.42L1378.13 1684.4L1378.14 1684.39L1371.31 1680.22ZM1307.22 1738.82L1303.62 1731.67L1303.6 1731.68L1303.59 1731.69L1307.22 1738.82ZM1060.4 1687.91L1053.63 1692.18L1053.64 1692.19L1053.65 1692.21L1060.4 1687.91ZM1037.32 1595.26V1587.26H1029.32V1595.26H1037.32ZM1147.55 1595.26H1155.55V1587.26H1147.55V1595.26ZM1155.61 1641.77L1148.36 1645.16L1148.39 1645.22L1148.42 1645.29L1155.61 1641.77ZM1276.46 1634.81L1269.2 1631.46L1269.17 1631.52L1269.14 1631.58L1276.46 1634.81ZM1293.25 1588.3V1218.8H1277.25V1588.3H1293.25ZM1285.25 1226.8H1394.75V1210.8H1285.25V1226.8ZM1386.75 1218.8V1588.3H1402.75V1218.8H1386.75ZM1386.75 1588.3C1386.75 1622.76 1379.21 1651.9 1364.48 1676.06L1378.14 1684.39C1394.66 1657.28 1402.75 1625.14 1402.75 1588.3H1386.75ZM1364.5 1676.03C1349.66 1700.14 1329.42 1718.66 1303.62 1731.67L1310.82 1745.96C1339.22 1731.63 1361.71 1711.09 1378.12 1684.42L1364.5 1676.03ZM1303.59 1731.69C1277.99 1744.72 1248.98 1751.32 1216.4 1751.32V1767.32C1251.2 1767.32 1282.74 1760.25 1310.85 1745.95L1303.59 1731.69ZM1216.4 1751.32C1182.38 1751.32 1152.62 1745.62 1126.95 1734.41L1120.55 1749.08C1148.59 1761.31 1180.6 1767.32 1216.4 1767.32V1751.32ZM1126.95 1734.41C1101.52 1723.32 1081.65 1706.41 1067.14 1683.62L1053.65 1692.21C1069.9 1717.75 1092.27 1736.74 1120.55 1749.08L1126.95 1734.41ZM1067.16 1683.65C1052.79 1660.84 1045.32 1631.54 1045.32 1595.26H1029.32C1029.32 1633.69 1037.24 1666.16 1053.63 1692.18L1067.16 1683.65ZM1037.32 1603.26H1147.55V1587.26H1037.32V1603.26ZM1139.55 1595.26C1139.55 1615.39 1142.3 1632.21 1148.36 1645.16L1162.86 1638.38C1158.18 1628.38 1155.55 1614.19 1155.55 1595.26H1139.55ZM1148.42 1645.29C1154.73 1658.17 1163.89 1667.77 1175.97 1673.53L1182.85 1659.08C1174.43 1655.07 1167.72 1648.32 1162.8 1638.25L1148.42 1645.29ZM1175.97 1673.53C1187.55 1679.04 1201.12 1681.63 1216.4 1681.63V1665.63C1202.88 1665.63 1191.78 1663.34 1182.85 1659.08L1175.97 1673.53ZM1216.4 1681.63C1231.63 1681.63 1245.26 1678.01 1256.98 1670.47L1248.33 1657.01C1239.54 1662.66 1229.01 1665.63 1216.4 1665.63V1681.63ZM1256.98 1670.47C1268.73 1662.92 1277.62 1651.97 1283.78 1638.05L1269.14 1631.58C1264.07 1643.04 1257.09 1651.38 1248.33 1657.01L1256.98 1670.47ZM1283.72 1638.16C1290.19 1624.15 1293.25 1607.43 1293.25 1588.3H1277.25C1277.25 1605.8 1274.44 1620.09 1269.2 1631.46L1283.72 1638.16ZM1428.14 1661.91L1422.62 1656.13L1422.58 1656.16L1422.55 1656.19L1428.14 1661.91ZM1514.94 1661.91L1509.34 1667.63L1509.38 1667.67L1509.41 1667.7L1514.94 1661.91ZM1514.94 1740.28L1509.41 1734.5L1509.38 1734.53L1509.34 1734.56L1514.94 1740.28ZM1428.14 1740.28L1422.55 1746L1422.58 1746.03L1422.62 1746.07L1428.14 1740.28ZM1420.03 1701.1C1420.03 1687.53 1424.6 1676.56 1433.74 1667.63L1422.55 1656.19C1410.2 1668.26 1404.03 1683.42 1404.03 1701.1H1420.03ZM1433.67 1667.7C1442.89 1658.88 1455.3 1654.17 1471.72 1654.17V1638.17C1452.01 1638.17 1435.37 1643.95 1422.62 1656.13L1433.67 1667.7ZM1471.72 1654.17C1488.15 1654.17 1500.39 1658.88 1509.34 1667.63L1520.53 1656.19C1508 1643.94 1491.43 1638.17 1471.72 1638.17V1654.17ZM1509.41 1667.7C1518.77 1676.64 1523.42 1687.59 1523.42 1701.1H1539.42C1539.42 1683.36 1533.08 1668.18 1520.46 1656.13L1509.41 1667.7ZM1523.42 1701.1C1523.42 1714.61 1518.77 1725.56 1509.41 1734.5L1520.46 1746.07C1533.08 1734.01 1539.42 1718.84 1539.42 1701.1H1523.42ZM1509.34 1734.56C1500.39 1743.31 1488.15 1748.03 1471.72 1748.03V1764.03C1491.43 1764.03 1508 1758.25 1520.53 1746L1509.34 1734.56ZM1471.72 1748.03C1455.3 1748.03 1442.89 1743.31 1433.67 1734.5L1422.62 1746.07C1435.37 1758.25 1452.01 1764.03 1471.72 1764.03V1748.03ZM1433.74 1734.56C1424.6 1725.63 1420.03 1714.67 1420.03 1701.1H1404.03C1404.03 1718.78 1410.2 1733.93 1422.55 1746L1433.74 1734.56ZM1829.22 1586.84L1821.65 1589.44L1821.7 1589.58L1821.76 1589.73L1829.22 1586.84ZM1813.84 1565.6L1808.58 1571.63L1808.64 1571.68L1808.7 1571.73L1813.84 1565.6ZM1728.88 1526.41L1726.42 1534.03L1726.45 1534.04L1726.48 1534.05L1728.88 1526.41ZM1660.03 1500.05L1656.72 1507.33L1656.73 1507.34L1656.75 1507.34L1660.03 1500.05ZM1602.9 1465.99L1597.88 1472.22L1597.93 1472.26L1597.98 1472.3L1602.9 1465.99ZM1564.08 1420.21L1557.03 1423.99L1557.05 1424.03L1557.07 1424.06L1564.08 1420.21ZM1564.81 1299.36L1571.85 1303.17L1571.86 1303.15L1571.87 1303.13L1564.81 1299.36ZM1605.83 1252.49L1610.57 1258.93L1610.6 1258.91L1610.63 1258.89L1605.83 1252.49ZM1668.09 1222.09L1665.84 1214.42L1665.83 1214.42L1665.82 1214.42L1668.09 1222.09ZM1918.57 1290.94L1911.88 1295.32L1911.89 1295.34L1911.91 1295.36L1918.57 1290.94ZM1943.11 1375.54V1383.54H1951.11V1375.54H1943.11ZM1833.98 1375.54H1825.98V1383.54H1833.98V1375.54ZM1824.09 1334.52L1817.02 1338.27L1817.07 1338.36L1817.12 1338.44L1824.09 1334.52ZM1794.79 1306.32L1791.06 1313.39L1791.08 1313.41L1791.11 1313.42L1794.79 1306.32ZM1698.11 1304.86L1701.35 1312.17L1701.41 1312.15L1701.47 1312.12L1698.11 1304.86ZM1669.55 1327.93L1676.21 1332.37L1676.23 1332.33L1676.26 1332.29L1669.55 1327.93ZM1666.62 1384.69L1659.76 1388.81L1659.81 1388.89L1659.86 1388.97L1666.62 1384.69ZM1766.23 1439.62L1763.86 1447.26L1763.89 1447.27L1763.91 1447.28L1766.23 1439.62ZM1842.77 1469.29L1839.19 1476.44L1839.21 1476.45L1839.22 1476.46L1842.77 1469.29ZM1672.11 1749.07L1669.98 1756.78L1670.02 1756.79L1670.05 1756.8L1672.11 1749.07ZM1602.17 1717.21L1597.66 1723.82L1597.68 1723.83L1597.69 1723.84L1602.17 1717.21ZM1533.69 1585.01V1577.01H1525.69V1585.01H1533.69ZM1643.92 1585.01H1651.92V1577.01H1643.92V1585.01ZM1673.21 1654.95L1668.36 1661.31L1668.4 1661.34L1668.44 1661.37L1673.21 1654.95ZM1706.9 1670.33L1705 1678.1L1705.01 1678.11L1705.03 1678.11L1706.9 1670.33ZM1796.99 1667.04L1793.82 1659.69L1793.8 1659.7L1793.77 1659.72L1796.99 1667.04ZM1824.46 1644.7L1817.72 1640.38L1817.68 1640.44L1817.64 1640.51L1824.46 1644.7ZM1841.61 1612.47C1841.61 1602.13 1840.02 1592.59 1836.68 1583.95L1821.76 1589.73C1824.28 1596.23 1825.61 1603.77 1825.61 1612.47H1841.61ZM1836.78 1584.24C1833.54 1574.8 1827.44 1566.57 1818.98 1559.47L1808.7 1571.73C1815.37 1577.33 1819.53 1583.25 1821.65 1589.44L1836.78 1584.24ZM1819.09 1559.57C1810.75 1552.3 1799.4 1545.46 1785.35 1538.93L1778.61 1553.45C1791.9 1559.62 1801.79 1565.72 1808.58 1571.63L1819.09 1559.57ZM1785.35 1538.93C1771.24 1532.39 1753.19 1525.68 1731.28 1518.78L1726.48 1534.05C1748.02 1540.82 1765.37 1547.3 1778.61 1553.45L1785.35 1538.93ZM1731.34 1518.8C1707.43 1511.07 1684.75 1502.39 1663.31 1492.75L1656.75 1507.34C1678.76 1517.24 1701.99 1526.13 1726.42 1534.03L1731.34 1518.8ZM1663.34 1492.76C1642.36 1483.23 1623.87 1472.19 1607.82 1459.68L1597.98 1472.3C1615.14 1485.67 1634.73 1497.33 1656.72 1507.33L1663.34 1492.76ZM1607.92 1459.76C1592.32 1447.19 1580.08 1432.72 1571.09 1416.36L1557.07 1424.06C1567.12 1442.37 1580.76 1458.42 1597.88 1472.22L1607.92 1459.76ZM1571.14 1416.44C1562.58 1400.45 1558.17 1381.64 1558.17 1359.79H1542.17C1542.17 1383.83 1547.03 1405.31 1557.03 1423.99L1571.14 1416.44ZM1558.17 1359.79C1558.17 1338.79 1562.77 1319.97 1571.85 1303.17L1557.78 1295.56C1547.33 1314.89 1542.17 1336.35 1542.17 1359.79H1558.17ZM1571.87 1303.13C1581.05 1285.93 1593.91 1271.2 1610.57 1258.93L1601.09 1246.05C1582.6 1259.66 1568.11 1276.18 1557.76 1295.6L1571.87 1303.13ZM1610.63 1258.89C1627.35 1246.35 1647.22 1236.61 1670.36 1229.76L1665.82 1214.42C1641.1 1221.74 1619.46 1232.26 1601.03 1246.09L1610.63 1258.89ZM1670.33 1229.77C1693.68 1222.93 1719.4 1219.47 1747.55 1219.47V1203.47C1718.09 1203.47 1690.83 1207.09 1665.84 1214.42L1670.33 1229.77ZM1747.55 1219.47C1785.9 1219.47 1818.97 1226.38 1846.98 1239.92L1853.94 1225.51C1823.36 1210.73 1787.82 1203.47 1747.55 1203.47V1219.47ZM1846.98 1239.92C1875.11 1253.51 1896.64 1272 1911.88 1295.32L1925.27 1286.56C1908.28 1260.56 1884.4 1240.23 1853.94 1225.51L1846.98 1239.92ZM1911.91 1295.36C1927.33 1318.61 1935.11 1345.25 1935.11 1375.54H1951.11C1951.11 1342.34 1942.53 1312.58 1925.24 1286.52L1911.91 1295.36ZM1943.11 1367.54H1833.98V1383.54H1943.11V1367.54ZM1841.98 1375.54C1841.98 1358.76 1838.43 1343.7 1831.06 1330.6L1817.12 1338.44C1822.93 1348.78 1825.98 1361.06 1825.98 1375.54H1841.98ZM1831.16 1330.77C1823.98 1317.23 1812.96 1306.73 1798.48 1299.22L1791.11 1313.42C1803 1319.59 1811.51 1327.88 1817.02 1338.27L1831.16 1330.77ZM1798.53 1299.25C1784.11 1291.63 1766.36 1288.07 1745.72 1288.07V1304.07C1764.63 1304.07 1779.6 1307.34 1791.06 1313.39L1798.53 1299.25ZM1745.72 1288.07C1725.92 1288.07 1708.82 1291.11 1694.76 1297.59L1701.47 1312.12C1712.8 1306.89 1727.44 1304.07 1745.72 1304.07V1288.07ZM1694.88 1297.54C1681.04 1303.66 1670.19 1312.27 1662.84 1323.57L1676.26 1332.29C1681.61 1324.06 1689.8 1317.28 1701.35 1312.17L1694.88 1297.54ZM1662.89 1323.49C1655.63 1334.39 1652.03 1346.69 1652.03 1360.15H1668.03C1668.03 1349.7 1670.78 1340.51 1676.21 1332.37L1662.89 1323.49ZM1652.03 1360.15C1652.03 1370.55 1654.58 1380.17 1659.76 1388.81L1673.48 1380.57C1669.88 1374.57 1668.03 1367.82 1668.03 1360.15H1652.03ZM1659.86 1388.97C1665.2 1397.39 1672.86 1404.95 1682.53 1411.74L1691.73 1398.65C1683.33 1392.75 1677.32 1386.64 1673.38 1380.41L1659.86 1388.97ZM1682.53 1411.74C1692.13 1418.49 1703.76 1424.73 1717.32 1430.5L1723.59 1415.78C1710.78 1410.33 1700.19 1404.6 1691.73 1398.65L1682.53 1411.74ZM1717.32 1430.5C1730.81 1436.25 1746.33 1441.83 1763.86 1447.26L1768.6 1431.98C1751.46 1426.67 1736.47 1421.27 1723.59 1415.78L1717.32 1430.5ZM1763.91 1447.28C1792.63 1455.97 1817.7 1465.7 1839.19 1476.44L1846.35 1462.13C1823.89 1450.9 1797.94 1440.86 1768.55 1431.96L1763.91 1447.28ZM1839.22 1476.46C1860.91 1487.18 1878.8 1499.11 1893.02 1512.17L1903.84 1500.38C1888.28 1486.1 1869.06 1473.36 1846.31 1462.11L1839.22 1476.46ZM1893.02 1512.17C1907.15 1525.14 1917.7 1539.74 1924.79 1555.98L1939.46 1549.58C1931.41 1531.16 1919.5 1514.75 1903.84 1500.38L1893.02 1512.17ZM1924.79 1555.98C1931.85 1572.16 1935.48 1590.69 1935.48 1611.74H1951.48C1951.48 1588.84 1947.53 1568.07 1939.46 1549.58L1924.79 1555.98ZM1935.48 1611.74C1935.48 1633.87 1931.17 1653.39 1922.75 1670.46L1937.1 1677.54C1946.75 1657.98 1951.48 1635.99 1951.48 1611.74H1935.48ZM1922.75 1670.46C1914.3 1687.58 1902.09 1702.11 1885.97 1714.08L1895.51 1726.93C1913.58 1713.51 1927.48 1697.03 1937.1 1677.54L1922.75 1670.46ZM1885.97 1714.08C1869.78 1726.11 1850.32 1735.36 1827.44 1741.73L1831.73 1757.14C1856.21 1750.33 1877.52 1740.29 1895.51 1726.93L1885.97 1714.08ZM1827.44 1741.73C1804.57 1748.09 1778.82 1751.32 1750.12 1751.32V1767.32C1780 1767.32 1807.23 1763.96 1831.73 1757.14L1827.44 1741.73ZM1750.12 1751.32C1724.45 1751.32 1699.14 1748 1674.18 1741.34L1670.05 1756.8C1696.36 1763.81 1723.05 1767.32 1750.12 1767.32V1751.32ZM1674.24 1741.36C1649.4 1734.5 1626.88 1724.23 1606.64 1710.58L1597.69 1723.84C1619.44 1738.51 1643.56 1749.48 1669.98 1756.78L1674.24 1741.36ZM1606.68 1710.6C1586.94 1697.13 1571.17 1679.98 1559.32 1659.07L1545.4 1666.95C1558.45 1689.99 1575.89 1708.97 1597.66 1723.82L1606.68 1710.6ZM1559.32 1659.07C1547.67 1638.51 1541.69 1613.92 1541.69 1585.01H1525.69C1525.69 1616.16 1532.15 1643.57 1545.4 1666.95L1559.32 1659.07ZM1533.69 1593.01H1643.92V1577.01H1533.69V1593.01ZM1635.92 1585.01C1635.92 1602.39 1638.59 1617.61 1644.3 1630.39L1658.91 1623.86C1654.36 1613.68 1651.92 1600.83 1651.92 1585.01H1635.92ZM1644.3 1630.39C1649.93 1642.98 1657.94 1653.36 1668.36 1661.31L1678.07 1648.59C1669.93 1642.39 1663.53 1634.21 1658.91 1623.86L1644.3 1630.39ZM1668.44 1661.37C1678.92 1669.16 1691.15 1674.71 1705 1678.1L1708.81 1662.57C1696.78 1659.61 1686.55 1654.9 1677.99 1648.53L1668.44 1661.37ZM1705.03 1678.11C1718.91 1681.45 1733.95 1683.1 1750.12 1683.1V1667.1C1735.03 1667.1 1721.26 1665.56 1708.78 1662.56L1705.03 1678.11ZM1750.12 1683.1C1769.83 1683.1 1786.65 1680.33 1800.21 1674.36L1793.77 1659.72C1782.92 1664.49 1768.49 1667.1 1750.12 1667.1V1683.1ZM1800.16 1674.38C1813.79 1668.5 1824.38 1660.09 1831.27 1648.89L1817.64 1640.51C1812.82 1648.35 1805.09 1654.83 1793.82 1659.69L1800.16 1674.38ZM1831.19 1649.02C1838.17 1638.13 1841.61 1625.87 1841.61 1612.47H1825.61C1825.61 1623 1822.95 1632.23 1817.72 1640.38L1831.19 1649.02Z" fill="#FF9983" fill-opacity="0.2"/>
</g>
<g filter="url(#filter4_f_0_1)">
<path d="M1277.31 1218.8V1210.8H1269.31V1218.8H1277.31ZM1386.8 1218.8H1394.8V1210.8H1386.8V1218.8ZM1363.37 1680.22L1370.18 1684.42L1370.19 1684.4L1370.2 1684.39L1363.37 1680.22ZM1299.28 1738.82L1295.67 1731.67L1295.66 1731.68L1295.65 1731.69L1299.28 1738.82ZM1052.45 1687.91L1045.68 1692.18L1045.69 1692.19L1045.7 1692.21L1052.45 1687.91ZM1029.38 1595.26V1587.26H1021.38V1595.26H1029.38ZM1139.61 1595.26H1147.61V1587.26H1139.61V1595.26ZM1147.67 1641.77L1140.42 1645.16L1140.45 1645.22L1140.48 1645.29L1147.67 1641.77ZM1268.52 1634.81L1261.25 1631.46L1261.23 1631.52L1261.2 1631.58L1268.52 1634.81ZM1285.31 1588.3V1218.8H1269.31V1588.3H1285.31ZM1277.31 1226.8H1386.8V1210.8H1277.31V1226.8ZM1378.8 1218.8V1588.3H1394.8V1218.8H1378.8ZM1378.8 1588.3C1378.8 1622.76 1371.26 1651.9 1356.53 1676.06L1370.2 1684.39C1386.72 1657.28 1394.8 1625.14 1394.8 1588.3H1378.8ZM1356.55 1676.03C1341.72 1700.14 1321.48 1718.66 1295.67 1731.67L1302.88 1745.96C1331.28 1731.63 1353.76 1711.09 1370.18 1684.42L1356.55 1676.03ZM1295.65 1731.69C1270.04 1744.72 1241.04 1751.32 1208.46 1751.32V1767.32C1243.26 1767.32 1274.8 1760.25 1302.91 1745.95L1295.65 1731.69ZM1208.46 1751.32C1174.44 1751.32 1144.68 1745.62 1119.01 1734.41L1112.61 1749.08C1140.65 1761.31 1172.65 1767.32 1208.46 1767.32V1751.32ZM1119.01 1734.41C1093.57 1723.32 1073.71 1706.41 1059.2 1683.62L1045.7 1692.21C1061.96 1717.75 1084.33 1736.74 1112.61 1749.08L1119.01 1734.41ZM1059.22 1683.65C1044.85 1660.84 1037.38 1631.54 1037.38 1595.26H1021.38C1021.38 1633.69 1029.29 1666.16 1045.68 1692.18L1059.22 1683.65ZM1029.38 1603.26H1139.61V1587.26H1029.38V1603.26ZM1131.61 1595.26C1131.61 1615.39 1134.36 1632.21 1140.42 1645.16L1154.91 1638.38C1150.23 1628.38 1147.61 1614.19 1147.61 1595.26H1131.61ZM1140.48 1645.29C1146.79 1658.17 1155.94 1667.77 1168.03 1673.53L1174.91 1659.08C1166.49 1655.07 1159.78 1648.32 1154.85 1638.25L1140.48 1645.29ZM1168.03 1673.53C1179.61 1679.04 1193.17 1681.63 1208.46 1681.63V1665.63C1194.93 1665.63 1183.84 1663.34 1174.91 1659.08L1168.03 1673.53ZM1208.46 1681.63C1223.69 1681.63 1237.32 1678.01 1249.04 1670.47L1240.39 1657.01C1231.6 1662.66 1221.06 1665.63 1208.46 1665.63V1681.63ZM1249.04 1670.47C1260.79 1662.92 1269.67 1651.97 1275.83 1638.05L1261.2 1631.58C1256.13 1643.04 1249.15 1651.38 1240.39 1657.01L1249.04 1670.47ZM1275.78 1638.16C1282.25 1624.15 1285.31 1607.43 1285.31 1588.3H1269.31C1269.31 1605.8 1266.5 1620.09 1261.25 1631.46L1275.78 1638.16ZM1420.2 1661.91L1414.67 1656.13L1414.64 1656.16L1414.61 1656.19L1420.2 1661.91ZM1506.99 1661.91L1501.4 1667.63L1501.43 1667.67L1501.47 1667.7L1506.99 1661.91ZM1506.99 1740.28L1501.47 1734.5L1501.43 1734.53L1501.4 1734.56L1506.99 1740.28ZM1420.2 1740.28L1414.61 1746L1414.64 1746.03L1414.67 1746.07L1420.2 1740.28ZM1412.09 1701.1C1412.09 1687.53 1416.66 1676.56 1425.79 1667.63L1414.61 1656.19C1402.26 1668.26 1396.09 1683.42 1396.09 1701.1H1412.09ZM1425.73 1667.7C1434.95 1658.88 1447.36 1654.17 1463.78 1654.17V1638.17C1444.07 1638.17 1427.42 1643.95 1414.67 1656.13L1425.73 1667.7ZM1463.78 1654.17C1480.21 1654.17 1492.45 1658.88 1501.4 1667.63L1512.58 1656.19C1500.05 1643.94 1483.48 1638.17 1463.78 1638.17V1654.17ZM1501.47 1667.7C1510.82 1676.64 1515.47 1687.59 1515.47 1701.1H1531.47C1531.47 1683.36 1525.14 1668.18 1512.52 1656.13L1501.47 1667.7ZM1515.47 1701.1C1515.47 1714.61 1510.82 1725.56 1501.47 1734.5L1512.52 1746.07C1525.14 1734.01 1531.47 1718.84 1531.47 1701.1H1515.47ZM1501.4 1734.56C1492.45 1743.31 1480.21 1748.03 1463.78 1748.03V1764.03C1483.48 1764.03 1500.05 1758.25 1512.58 1746L1501.4 1734.56ZM1463.78 1748.03C1447.36 1748.03 1434.95 1743.31 1425.73 1734.5L1414.67 1746.07C1427.42 1758.25 1444.07 1764.03 1463.78 1764.03V1748.03ZM1425.79 1734.56C1416.66 1725.63 1412.09 1714.67 1412.09 1701.1H1396.09C1396.09 1718.78 1402.26 1733.93 1414.61 1746L1425.79 1734.56ZM1821.28 1586.84L1813.71 1589.44L1813.76 1589.58L1813.81 1589.73L1821.28 1586.84ZM1805.89 1565.6L1800.64 1571.63L1800.7 1571.68L1800.75 1571.73L1805.89 1565.6ZM1720.93 1526.41L1718.47 1534.03L1718.5 1534.04L1718.53 1534.05L1720.93 1526.41ZM1652.09 1500.05L1648.78 1507.33L1648.79 1507.34L1648.81 1507.34L1652.09 1500.05ZM1594.96 1465.99L1589.94 1472.22L1589.99 1472.26L1590.04 1472.3L1594.96 1465.99ZM1556.14 1420.21L1549.09 1423.99L1549.11 1424.03L1549.13 1424.06L1556.14 1420.21ZM1556.87 1299.36L1563.91 1303.17L1563.92 1303.15L1563.93 1303.13L1556.87 1299.36ZM1597.89 1252.49L1602.63 1258.93L1602.66 1258.91L1602.69 1258.89L1597.89 1252.49ZM1660.14 1222.09L1657.89 1214.42L1657.88 1214.42L1657.87 1214.42L1660.14 1222.09ZM1910.63 1290.94L1903.93 1295.32L1903.95 1295.34L1903.96 1295.36L1910.63 1290.94ZM1935.17 1375.54V1383.54H1943.17V1375.54H1935.17ZM1826.04 1375.54H1818.04V1383.54H1826.04V1375.54ZM1816.15 1334.52L1809.08 1338.27L1809.13 1338.36L1809.18 1338.44L1816.15 1334.52ZM1786.85 1306.32L1783.11 1313.39L1783.14 1313.41L1783.17 1313.42L1786.85 1306.32ZM1690.17 1304.86L1693.41 1312.17L1693.47 1312.15L1693.52 1312.12L1690.17 1304.86ZM1661.61 1327.93L1668.26 1332.37L1668.29 1332.33L1668.31 1332.29L1661.61 1327.93ZM1658.68 1384.69L1651.82 1388.81L1651.87 1388.89L1651.92 1388.97L1658.68 1384.69ZM1758.29 1439.62L1755.92 1447.26L1755.94 1447.27L1755.97 1447.28L1758.29 1439.62ZM1834.83 1469.29L1831.25 1476.44L1831.26 1476.45L1831.28 1476.46L1834.83 1469.29ZM1664.17 1749.07L1662.04 1756.78L1662.08 1756.79L1662.11 1756.8L1664.17 1749.07ZM1594.22 1717.21L1589.72 1723.82L1589.73 1723.83L1589.75 1723.84L1594.22 1717.21ZM1525.74 1585.01V1577.01H1517.74V1585.01H1525.74ZM1635.97 1585.01H1643.97V1577.01H1635.97V1585.01ZM1665.27 1654.95L1660.42 1661.31L1660.46 1661.34L1660.5 1661.37L1665.27 1654.95ZM1698.96 1670.33L1697.06 1678.1L1697.07 1678.11L1697.09 1678.11L1698.96 1670.33ZM1789.05 1667.04L1785.88 1659.69L1785.85 1659.7L1785.83 1659.72L1789.05 1667.04ZM1816.51 1644.7L1809.78 1640.38L1809.74 1640.44L1809.7 1640.51L1816.51 1644.7ZM1833.67 1612.47C1833.67 1602.13 1832.08 1592.59 1828.74 1583.95L1813.81 1589.73C1816.33 1596.23 1817.67 1603.77 1817.67 1612.47H1833.67ZM1828.84 1584.24C1825.6 1574.8 1819.5 1566.57 1811.04 1559.47L1800.75 1571.73C1807.43 1577.33 1811.58 1583.25 1813.71 1589.44L1828.84 1584.24ZM1811.15 1559.57C1802.8 1552.3 1791.45 1545.46 1777.4 1538.93L1770.67 1553.45C1783.96 1559.62 1793.85 1565.72 1800.64 1571.63L1811.15 1559.57ZM1777.4 1538.93C1763.3 1532.39 1745.24 1525.68 1723.33 1518.78L1718.53 1534.05C1740.08 1540.82 1757.42 1547.3 1770.67 1553.45L1777.4 1538.93ZM1723.39 1518.8C1699.48 1511.07 1676.81 1502.39 1655.37 1492.75L1648.81 1507.34C1670.82 1517.24 1694.04 1526.13 1718.47 1534.03L1723.39 1518.8ZM1655.4 1492.76C1634.42 1483.23 1615.93 1472.19 1599.87 1459.68L1590.04 1472.3C1607.19 1485.67 1626.79 1497.33 1648.78 1507.33L1655.4 1492.76ZM1599.98 1459.76C1584.38 1447.19 1572.14 1432.72 1563.15 1416.36L1549.13 1424.06C1559.18 1442.37 1572.82 1458.42 1589.94 1472.22L1599.98 1459.76ZM1563.19 1416.44C1554.63 1400.45 1550.22 1381.64 1550.22 1359.79H1534.22C1534.22 1383.83 1539.09 1405.31 1549.09 1423.99L1563.19 1416.44ZM1550.22 1359.79C1550.22 1338.79 1554.83 1319.97 1563.91 1303.17L1549.83 1295.56C1539.39 1314.89 1534.22 1336.35 1534.22 1359.79H1550.22ZM1563.93 1303.13C1573.1 1285.93 1585.96 1271.2 1602.63 1258.93L1593.14 1246.05C1574.65 1259.66 1560.17 1276.18 1549.81 1295.6L1563.93 1303.13ZM1602.69 1258.89C1619.41 1246.35 1639.28 1236.61 1662.41 1229.76L1657.87 1214.42C1633.16 1221.74 1611.52 1232.26 1593.09 1246.09L1602.69 1258.89ZM1662.39 1229.77C1685.73 1222.93 1711.46 1219.47 1739.61 1219.47V1203.47C1710.15 1203.47 1682.89 1207.09 1657.89 1214.42L1662.39 1229.77ZM1739.61 1219.47C1777.96 1219.47 1811.03 1226.38 1839.03 1239.92L1846 1225.51C1815.41 1210.73 1779.88 1203.47 1739.61 1203.47V1219.47ZM1839.03 1239.92C1867.16 1253.51 1888.7 1272 1903.93 1295.32L1917.33 1286.56C1900.34 1260.56 1876.46 1240.23 1846 1225.51L1839.03 1239.92ZM1903.96 1295.36C1919.39 1318.61 1927.17 1345.25 1927.17 1375.54H1943.17C1943.17 1342.34 1934.59 1312.58 1917.3 1286.52L1903.96 1295.36ZM1935.17 1367.54H1826.04V1383.54H1935.17V1367.54ZM1834.04 1375.54C1834.04 1358.76 1830.49 1343.7 1823.12 1330.6L1809.18 1338.44C1814.99 1348.78 1818.04 1361.06 1818.04 1375.54H1834.04ZM1823.22 1330.77C1816.03 1317.23 1805.01 1306.73 1790.53 1299.22L1783.17 1313.42C1795.06 1319.59 1803.57 1327.88 1809.08 1338.27L1823.22 1330.77ZM1790.59 1299.25C1776.16 1291.63 1758.42 1288.07 1737.78 1288.07V1304.07C1756.69 1304.07 1771.66 1307.34 1783.11 1313.39L1790.59 1299.25ZM1737.78 1288.07C1717.97 1288.07 1700.87 1291.11 1686.82 1297.59L1693.52 1312.12C1704.86 1306.89 1719.5 1304.07 1737.78 1304.07V1288.07ZM1686.94 1297.54C1673.1 1303.66 1662.24 1312.27 1654.9 1323.57L1668.31 1332.29C1673.67 1324.06 1681.86 1317.28 1693.41 1312.17L1686.94 1297.54ZM1654.95 1323.49C1647.69 1334.39 1644.09 1346.69 1644.09 1360.15H1660.09C1660.09 1349.7 1662.83 1340.51 1668.26 1332.37L1654.95 1323.49ZM1644.09 1360.15C1644.09 1370.55 1646.63 1380.17 1651.82 1388.81L1665.54 1380.57C1661.93 1374.57 1660.09 1367.82 1660.09 1360.15H1644.09ZM1651.92 1388.97C1657.25 1397.39 1664.92 1404.95 1674.59 1411.74L1683.79 1398.65C1675.39 1392.75 1669.38 1386.64 1665.44 1380.41L1651.92 1388.97ZM1674.59 1411.74C1684.19 1418.49 1695.82 1424.73 1709.38 1430.5L1715.65 1415.78C1702.83 1410.33 1692.25 1404.6 1683.79 1398.65L1674.59 1411.74ZM1709.38 1430.5C1722.87 1436.25 1738.39 1441.83 1755.92 1447.26L1760.65 1431.98C1743.52 1426.67 1728.52 1421.27 1715.65 1415.78L1709.38 1430.5ZM1755.97 1447.28C1784.69 1455.97 1809.76 1465.7 1831.25 1476.44L1838.4 1462.13C1815.94 1450.9 1789.99 1440.86 1760.6 1431.96L1755.97 1447.28ZM1831.28 1476.46C1852.96 1487.18 1870.85 1499.11 1885.08 1512.17L1895.9 1500.38C1880.34 1486.1 1861.12 1473.36 1838.37 1462.11L1831.28 1476.46ZM1885.08 1512.17C1899.21 1525.14 1909.76 1539.74 1916.85 1555.98L1931.51 1549.58C1923.47 1531.16 1911.56 1514.75 1895.9 1500.38L1885.08 1512.17ZM1916.85 1555.98C1923.91 1572.16 1927.53 1590.69 1927.53 1611.74H1943.53C1943.53 1588.84 1939.59 1568.07 1931.51 1549.58L1916.85 1555.98ZM1927.53 1611.74C1927.53 1633.87 1923.23 1653.39 1914.81 1670.46L1929.16 1677.54C1938.8 1657.98 1943.53 1635.99 1943.53 1611.74H1927.53ZM1914.81 1670.46C1906.36 1687.58 1894.14 1702.11 1878.03 1714.08L1887.57 1726.93C1905.63 1713.51 1919.54 1697.03 1929.16 1677.54L1914.81 1670.46ZM1878.03 1714.08C1861.84 1726.11 1842.38 1735.36 1819.5 1741.73L1823.79 1757.14C1848.27 1750.33 1869.58 1740.29 1887.57 1726.93L1878.03 1714.08ZM1819.5 1741.73C1796.63 1748.09 1770.88 1751.32 1742.17 1751.32V1767.32C1772.06 1767.32 1799.29 1763.96 1823.79 1757.14L1819.5 1741.73ZM1742.17 1751.32C1716.51 1751.32 1691.2 1748 1666.23 1741.34L1662.11 1756.8C1688.41 1763.81 1715.11 1767.32 1742.17 1767.32V1751.32ZM1666.3 1741.36C1641.46 1734.5 1618.94 1724.23 1598.7 1710.58L1589.75 1723.84C1611.5 1738.51 1635.61 1749.48 1662.04 1756.78L1666.3 1741.36ZM1598.73 1710.6C1579 1697.13 1563.23 1679.98 1551.38 1659.07L1537.46 1666.95C1550.51 1689.99 1567.95 1708.97 1589.72 1723.82L1598.73 1710.6ZM1551.38 1659.07C1539.73 1638.51 1533.74 1613.92 1533.74 1585.01H1517.74C1517.74 1616.16 1524.21 1643.57 1537.46 1666.95L1551.38 1659.07ZM1525.74 1593.01H1635.97V1577.01H1525.74V1593.01ZM1627.97 1585.01C1627.97 1602.39 1630.65 1617.61 1636.36 1630.39L1650.97 1623.86C1646.42 1613.68 1643.97 1600.83 1643.97 1585.01H1627.97ZM1636.36 1630.39C1641.99 1642.98 1650 1653.36 1660.42 1661.31L1670.12 1648.59C1661.99 1642.39 1655.59 1634.21 1650.97 1623.86L1636.36 1630.39ZM1660.5 1661.37C1670.97 1669.16 1683.21 1674.71 1697.06 1678.1L1700.87 1662.57C1688.84 1659.61 1678.61 1654.9 1670.04 1648.53L1660.5 1661.37ZM1697.09 1678.11C1710.97 1681.45 1726.01 1683.1 1742.17 1683.1V1667.1C1727.09 1667.1 1713.32 1665.56 1700.83 1662.56L1697.09 1678.11ZM1742.17 1683.1C1761.89 1683.1 1778.71 1680.33 1792.27 1674.36L1785.83 1659.72C1774.97 1664.49 1760.55 1667.1 1742.17 1667.1V1683.1ZM1792.22 1674.38C1805.85 1668.5 1816.44 1660.09 1823.33 1648.89L1809.7 1640.51C1804.87 1648.35 1797.15 1654.83 1785.88 1659.69L1792.22 1674.38ZM1823.25 1649.02C1830.23 1638.13 1833.67 1625.87 1833.67 1612.47H1817.67C1817.67 1623 1815.01 1632.23 1809.78 1640.38L1823.25 1649.02Z" fill="white"/>
</g>
<g style="mix-blend-mode:hard-light" filter="url(#filter5_f_0_1)">
<path d="M2272.23 1500C2272.23 1912.33 1927.77 2246.75 1502.65 2246.75C1077.53 2246.75 733.076 1912.33 733.076 1500C733.076 1087.67 1077.53 753.25 1502.65 753.25C1927.77 753.25 2272.23 1087.67 2272.23 1500Z" stroke="#FF5C00" stroke-width="6.5"/>
</g>
<g style="mix-blend-mode:hard-light" filter="url(#filter6_f_0_1)">
<path d="M2271.23 1500C2271.23 1911.75 1927.25 2245.75 1502.65 2245.75C1078.06 2245.75 734.076 1911.75 734.076 1500C734.076 1088.25 1078.06 754.25 1502.65 754.25C1927.25 754.25 2271.23 1088.25 2271.23 1500Z" stroke="#FF0000" stroke-width="8.5"/>
</g>
<g style="mix-blend-mode:hard-light" filter="url(#filter7_ddi_0_1)">
<path d="M2272.23 1500C2272.23 1912.33 1927.77 2246.75 1502.65 2246.75C1077.53 2246.75 733.076 1912.33 733.076 1500C733.076 1087.67 1077.53 753.25 1502.65 753.25C1927.77 753.25 2272.23 1087.67 2272.23 1500Z" stroke="#FF0000" stroke-opacity="0.2" stroke-width="6.5"/>
</g>
<g filter="url(#filter8_f_0_1)">
<path d="M2273.48 1500C2273.48 1913.05 1928.42 2248 1502.65 2248C1076.88 2248 731.826 1913.05 731.826 1500C731.826 1086.95 1076.88 752 1502.65 752C1928.42 752 2273.48 1086.95 2273.48 1500Z" stroke="#FF9983" stroke-width="4"/>
</g>
<g filter="url(#filter9_f_0_1)">
<path d="M2274.48 1500C2274.48 1913.63 1928.95 2249 1502.65 2249C1076.36 2249 730.826 1913.63 730.826 1500C730.826 1086.37 1076.36 751 1502.65 751C1928.95 751 2274.48 1086.37 2274.48 1500Z" stroke="white" stroke-width="2"/>
</g>
</g>
<defs>
<filter id="filter0_f_0_1" x="999.199" y="1173.35" width="982.402" height="624.102" filterUnits="userSpaceOnUse" color-interpolation-filters="sRGB">
<feFlood flood-opacity="0" result="BackgroundImageFix"/>
<feBlend mode="normal" in="SourceGraphic" in2="BackgroundImageFix" result="shape"/>
<feGaussianBlur stdDeviation="19.0625" result="effect1_foregroundBlur_0_1"/>
</filter>
<filter id="filter1_f_0_1" x="1024.62" y="1198.76" width="931.569" height="573.268" filterUnits="userSpaceOnUse" color-interpolation-filters="sRGB">
<feFlood flood-opacity="0" result="BackgroundImageFix"/>
<feBlend mode="normal" in="SourceGraphic" in2="BackgroundImageFix" result="shape"/>
<feGaussianBlur stdDeviation="6.35417" result="effect1_foregroundBlur_0_1"/>
</filter>
<filter id="filter2_ddi_0_1" x="1012.86" y="1215.6" width="939.194" height="580.893" filterUnits="userSpaceOnUse" color-interpolation-filters="sRGB">
<feFlood flood-opacity="0" result="BackgroundImageFix"/>
<feColorMatrix in="SourceAlpha" type="matrix" values="0 0 0 0 0 0 0 0 0 0 0 0 0 0 0 0 0 0 127 0" result="hardAlpha"/>
<feOffset dy="8.26042"/>
<feGaussianBlur stdDeviation="3.17708"/>
<feColorMatrix type="matrix" values="0 0 0 0 0.15 0 0 0 0 0 0 0 0 0 0 0 0 0 0.7 0"/>
<feBlend mode="multiply" in2="BackgroundImageFix" result="effect1_dropShadow_0_1"/>
<feColorMatrix in="SourceAlpha" type="matrix" values="0 0 0 0 0 0 0 0 0 0 0 0 0 0 0 0 0 0 127 0" result="hardAlpha"/>
<feOffset dy="12.7083"/>
<feGaussianBlur stdDeviation="8.26042"/>
<feColorMatrix type="matrix" values="0 0 0 0 0.8 0 0 0 0 0.19 0 0 0 0 0.19 0 0 0 1 0"/>
<feBlend mode="color-dodge" in2="effect1_dropShadow_0_1" result="effect2_dropShadow_0_1"/>
<feBlend mode="normal" in="SourceGraphic" in2="effect2_dropShadow_0_1" result="shape"/>
<feColorMatrix in="SourceAlpha" type="matrix" values="0 0 0 0 0 0 0 0 0 0 0 0 0 0 0 0 0 0 127 0" result="hardAlpha"/>
<feOffset dx="-0.826042" dy="1.65208"/>
<feGaussianBlur stdDeviation="0.413021"/>
<feComposite in2="hardAlpha" operator="arithmetic" k2="-1" k3="1"/>
<feColorMatrix type="matrix" values="0 0 0 0 1 0 0 0 0 1 0 0 0 0 1 0 0 0 0.5 0"/>
<feBlend mode="normal" in2="shape" result="effect3_innerShadow_0_1"/>
</filter>
<filter id="filter3_f_0_1" x="1036.05" y="1210.2" width="908.694" height="550.393" filterUnits="userSpaceOnUse" color-interpolation-filters="sRGB">
<feFlood flood-opacity="0" result="BackgroundImageFix"/>
<feBlend mode="normal" in="SourceGraphic" in2="BackgroundImageFix" result="shape"/>
<feGaussianBlur stdDeviation="0.635417" result="effect1_foregroundBlur_0_1"/>
</filter>
<filter id="filter4_f_0_1" x="1028.53" y="1210.63" width="907.847" height="549.546" filterUnits="userSpaceOnUse" color-interpolation-filters="sRGB">
<feFlood flood-opacity="0" result="BackgroundImageFix"/>
<feBlend mode="normal" in="SourceGraphic" in2="BackgroundImageFix" result="shape"/>
<feGaussianBlur stdDeviation="0.423611" result="effect1_foregroundBlur_0_1"/>
</filter>
<filter id="filter5_f_0_1" x="714.676" y="734.85" width="1575.95" height="1530.3" filterUnits="userSpaceOnUse" color-interpolation-filters="sRGB">
<feFlood flood-opacity="0" result="BackgroundImageFix"/>
<feBlend mode="normal" in="SourceGraphic" in2="BackgroundImageFix" result="shape"/>
<feGaussianBlur stdDeviation="7.575" result="effect1_foregroundBlur_0_1"/>
</filter>
<filter id="filter6_f_0_1" x="724.776" y="744.95" width="1555.75" height="1510.1" filterUnits="userSpaceOnUse" color-interpolation-filters="sRGB">
<feFlood flood-opacity="0" result="BackgroundImageFix"/>
<feBlend mode="normal" in="SourceGraphic" in2="BackgroundImageFix" result="shape"/>
<feGaussianBlur stdDeviation="2.525" result="effect1_foregroundBlur_0_1"/>
</filter>
<filter id="filter7_ddi_0_1" x="723.261" y="748.485" width="1558.78" height="1513.13" filterUnits="userSpaceOnUse" color-interpolation-filters="sRGB">
<feFlood flood-opacity="0" result="BackgroundImageFix"/>
<feColorMatrix in="SourceAlpha" type="matrix" values="0 0 0 0 0 0 0 0 0 0 0 0 0 0 0 0 0 0 127 0" result="hardAlpha"/>
<feOffset dy="6.5"/>
<feGaussianBlur stdDeviation="2.5"/>
<feColorMatrix type="matrix" values="0 0 0 0 0.15 0 0 0 0 0 0 0 0 0 0 0 0 0 0.7 0"/>
<feBlend mode="multiply" in2="BackgroundImageFix" result="effect1_dropShadow_0_1"/>
<feColorMatrix in="SourceAlpha" type="matrix" values="0 0 0 0 0 0 0 0 0 0 0 0 0 0 0 0 0 0 127 0" result="hardAlpha"/>
<feOffset dy="5.05"/>
<feGaussianBlur stdDeviation="3.2825"/>
<feColorMatrix type="matrix" values="0 0 0 0 0.8 0 0 0 0 0.19 0 0 0 0 0.19 0 0 0 1 0"/>
<feBlend mode="color-dodge" in2="effect1_dropShadow_0_1" result="effect2_dropShadow_0_1"/>
<feBlend mode="normal" in="SourceGraphic" in2="effect2_dropShadow_0_1" result="shape"/>
<feColorMatrix in="SourceAlpha" type="matrix" values="0 0 0 0 0 0 0 0 0 0 0 0 0 0 0 0 0 0 127 0" result="hardAlpha"/>
<feOffset dx="-0.65" dy="1.3"/>
<feGaussianBlur stdDeviation="0.325"/>
<feComposite in2="hardAlpha" operator="arithmetic" k2="-1" k3="1"/>
<feColorMatrix type="matrix" values="0 0 0 0 1 0 0 0 0 1 0 0 0 0 1 0 0 0 0.5 0"/>
<feBlend mode="normal" in2="shape" result="effect3_innerShadow_0_1"/>
</filter>
<filter id="filter8_f_0_1" x="728.826" y="749" width="1547.65" height="1502" filterUnits="userSpaceOnUse" color-interpolation-filters="sRGB">
<feFlood flood-opacity="0" result="BackgroundImageFix"/>
<feBlend mode="normal" in="SourceGraphic" in2="BackgroundImageFix" result="shape"/>
<feGaussianBlur stdDeviation="0.5" result="effect1_foregroundBlur_0_1"/>
</filter>
<filter id="filter9_f_0_1" x="729.159" y="749.333" width="1546.99" height="1501.33" filterUnits="userSpaceOnUse" color-interpolation-filters="sRGB">
<feFlood flood-opacity="0" result="BackgroundImageFix"/>
<feBlend mode="normal" in="SourceGraphic" in2="BackgroundImageFix" result="shape"/>
<feGaussianBlur stdDeviation="0.333333" result="effect1_foregroundBlur_0_1"/>
</filter>
<clipPath id="clip0_0_1">
<rect width="3000" height="3000" fill="white"/>
</clipPath>
</defs>
</svg>
