<svg width="500" height="500" viewBox="0 0 500 500" fill="none" xmlns="http://www.w3.org/2000/svg">
<rect width="500" height="500" fill="#1E1E1E"/>
<g clip-path="url(#clip0_0_1)">
<ellipse cx="248" cy="252" rx="237" ry="230" fill="#0A0708"/>
<g style="mix-blend-mode:hard-light" filter="url(#filter0_f_0_1)">
<path d="M190.715 156.266V148.266H182.715V156.266H190.715ZM214.152 156.266H222.152V148.266H214.152V156.266ZM187.053 330.216L190.603 337.385L190.617 337.378L190.63 337.371L187.053 330.216ZM101.97 284.806V276.806H93.9697V284.806H101.97ZM125.529 284.806H133.529V276.806H125.529V284.806ZM141.154 313.858L137.771 321.108L137.794 321.119L137.817 321.129L141.154 313.858ZM174.724 313.37L178.488 320.429L178.509 320.418L178.53 320.406L174.724 313.37ZM186.442 301.529L193.461 305.368L193.474 305.345L193.486 305.322L186.442 301.529ZM198.715 282.12V156.266H182.715V282.12H198.715ZM190.715 164.266H214.152V148.266H190.715V164.266ZM206.152 156.266V282.12H222.152V156.266H206.152ZM206.152 282.12C206.152 292.753 203.978 301.144 200.078 307.688L213.822 315.879C219.525 306.309 222.152 294.924 222.152 282.12H206.152ZM200.078 307.688C196.067 314.418 190.583 319.506 183.475 323.06L190.63 337.371C200.449 332.462 208.23 325.262 213.822 315.879L200.078 307.688ZM183.503 323.047C176.393 326.567 167.999 328.441 158.122 328.441V344.441C170.055 344.441 180.948 342.166 190.603 337.385L183.503 323.047ZM158.122 328.441C148.135 328.441 139.584 326.729 132.305 323.51L125.833 338.142C135.481 342.41 146.299 344.441 158.122 344.441V328.441ZM132.305 323.51C125.263 320.395 119.879 315.747 115.948 309.483L102.396 317.989C108.068 327.025 115.949 333.771 125.833 338.142L132.305 323.51ZM115.948 309.483C112.147 303.427 109.97 295.366 109.97 284.806H93.9697C93.9697 297.52 96.5942 308.746 102.396 317.989L115.948 309.483ZM101.97 292.806H125.529V276.806H101.97V292.806ZM117.529 284.806C117.529 293.221 119.078 300.863 122.748 307.233L136.611 299.244C134.748 296.011 133.529 291.364 133.529 284.806H117.529ZM122.748 307.233C126.311 313.415 131.355 318.114 137.771 321.108L144.537 306.609C141.188 305.046 138.583 302.665 136.611 299.244L122.748 307.233ZM137.817 321.129C143.985 323.96 150.808 325.276 158.122 325.276V309.276C152.741 309.276 148.252 308.314 144.492 306.588L137.817 321.129ZM158.122 325.276C165.463 325.276 172.316 323.721 178.488 320.429L170.959 306.311C167.366 308.228 163.151 309.276 158.122 309.276V325.276ZM178.53 320.406C184.923 316.948 189.913 311.856 193.461 305.368L179.423 297.691C177.275 301.619 174.453 304.421 170.917 306.334L178.53 320.406ZM193.486 305.322C197.111 298.591 198.715 290.74 198.715 282.12H182.715C182.715 288.799 181.471 293.888 179.399 297.736L193.486 305.322ZM229.558 312.394L223.638 307.012L223.63 307.021L229.558 312.394ZM250.432 312.394L244.422 317.674L244.507 317.771L244.595 317.865L250.432 312.394ZM250.432 331.559L244.595 326.087L244.549 326.136L244.504 326.186L250.432 331.559ZM229.558 331.559L223.63 336.931L223.675 336.981L223.721 337.03L229.558 331.559ZM234.018 322.037C234.018 320.008 234.582 318.763 235.486 317.766L223.63 307.021C219.814 311.232 218.018 316.417 218.018 322.037H234.018ZM235.477 317.775C236.032 317.165 237.135 316.365 240.056 316.365V300.365C233.862 300.365 227.966 302.251 223.638 307.012L235.477 317.775ZM240.056 316.365C242.989 316.365 243.977 317.168 244.422 317.674L256.441 307.113C252.166 302.248 246.237 300.365 240.056 300.365V316.365ZM244.595 317.865C245.541 318.874 246.094 320.085 246.094 322.037H262.094C262.094 316.339 260.205 311.121 256.268 306.922L244.595 317.865ZM246.094 322.037C246.094 323.857 245.574 325.043 244.595 326.087L256.268 337.03C260.172 332.865 262.094 327.704 262.094 322.037H246.094ZM244.504 326.186C244.079 326.655 243.065 327.465 240.056 327.465V343.465C246.161 343.465 252.064 341.671 256.36 336.931L244.504 326.186ZM240.056 327.465C237.061 327.465 235.93 326.659 235.394 326.087L223.721 337.03C228.068 341.666 233.935 343.465 240.056 343.465V327.465ZM235.486 326.186C234.551 325.155 234.018 323.936 234.018 322.037H218.018C218.018 327.625 219.844 332.754 223.63 336.931L235.486 326.186ZM362.761 278.092L355.27 280.901L355.313 281.015L355.359 281.128L362.761 278.092ZM356.169 269.303L351.016 275.422L351.055 275.455L351.094 275.487L356.169 269.303ZM343.229 261.856L340.052 269.198L340.071 269.207L340.091 269.215L343.229 261.856ZM322.478 254.654L320.205 262.325L320.223 262.33L320.24 262.335L322.478 254.654ZM298.674 245.987L295.332 253.256L295.367 253.272L295.401 253.287L298.674 245.987ZM281.34 167.74L286.395 173.94L286.406 173.932L281.34 167.74ZM359.221 161.515L355.351 168.517L355.388 168.537L355.424 168.556L359.221 161.515ZM380.583 181.412L373.705 185.498L373.714 185.513L373.723 185.528L380.583 181.412ZM387.907 207.535V215.535H395.907V207.535H387.907ZM364.47 207.535H356.47V215.535H364.47V207.535ZM360.197 189.835L353.178 193.673L353.191 193.697L353.204 193.72L360.197 189.835ZM347.258 177.628L343.561 184.722L343.6 184.743L343.64 184.763L347.258 177.628ZM292.326 187.149L285.535 182.921L285.506 182.968L285.478 183.014L292.326 187.149ZM290.739 212.174L283.584 215.752L283.641 215.866L283.702 215.978L290.739 212.174ZM298.186 220.597L293.263 226.903L293.3 226.932L293.337 226.96L298.186 220.597ZM311.125 227.799L308.015 235.17L308.036 235.178L308.056 235.187L311.125 227.799ZM330.046 234.146L332.219 226.447L332.203 226.443L332.187 226.438L330.046 234.146ZM374.235 255.509L368.784 261.364L368.836 261.413L368.889 261.46L374.235 255.509ZM384.855 270.279L377.458 273.325L377.485 273.391L377.514 273.457L384.855 270.279ZM371.428 323.502L366.582 317.136L371.428 323.502ZM351.774 333.146L354.005 340.828L354.032 340.821L354.058 340.813L351.774 333.146ZM302.092 333.023L299.873 340.71L299.884 340.713L299.894 340.716L302.092 333.023ZM280.485 322.77L275.859 329.296L275.878 329.31L275.898 329.323L280.485 322.77ZM264.982 305.924L258.021 309.866L258.049 309.916L258.078 309.965L264.982 305.924ZM259.245 282.486V274.486H251.245V282.486H259.245ZM282.683 282.486H290.683V274.486H282.683V282.486ZM286.223 298.233L279.175 302.018L279.19 302.046L279.205 302.073L286.223 298.233ZM295.866 308.976L291.279 315.529L291.309 315.551L291.339 315.572L295.866 308.976ZM309.904 315.323L307.851 323.055L307.921 323.074L307.992 323.091L309.904 315.323ZM360.197 304.093L353.679 299.455L353.649 299.497L353.62 299.539L360.197 304.093ZM372.714 289.078C372.714 284.099 371.933 279.372 370.162 275.055L355.359 281.128C356.193 283.159 356.714 285.756 356.714 289.078H372.714ZM370.251 275.283C368.454 270.489 365.308 266.453 361.243 263.118L351.094 275.487C353.378 277.361 354.627 279.185 355.27 280.901L370.251 275.283ZM361.322 263.183C357.405 259.885 352.312 257.033 346.368 254.498L340.091 269.215C345.215 271.4 348.748 273.512 351.016 275.422L361.322 263.183ZM346.407 254.515C340.543 251.976 333.283 249.469 324.715 246.973L320.24 262.335C328.436 264.722 335.011 267.016 340.052 269.198L346.407 254.515ZM324.75 246.984C316.243 244.463 308.65 241.692 301.946 238.687L295.401 253.287C302.858 256.63 311.134 259.637 320.205 262.325L324.75 246.984ZM302.016 238.719C295.444 235.697 289.992 232.34 285.568 228.701L275.403 241.057C281.07 245.719 287.743 249.767 295.332 253.256L302.016 238.719ZM285.568 228.701C281.311 225.199 278.186 221.302 276.044 217.019L261.733 224.174C264.963 230.633 269.569 236.258 275.403 241.057L285.568 228.701ZM276.044 217.019C273.993 212.916 272.86 208.028 272.86 202.164H256.86C256.86 210.134 258.413 217.535 261.733 224.174L276.044 217.019ZM272.86 202.164C272.86 196.382 274.042 191.199 276.328 186.497L261.938 179.501C258.527 186.518 256.86 194.112 256.86 202.164H272.86ZM276.328 186.497C278.644 181.733 281.963 177.555 286.395 173.94L276.284 161.54C270.138 166.552 265.319 172.547 261.938 179.501L276.328 186.497ZM286.406 173.932C290.929 170.231 296.422 167.256 303.01 165.084L298 149.889C289.776 152.6 282.493 156.46 276.274 161.549L286.406 173.932ZM303.01 165.084C309.484 162.95 316.881 161.824 325.285 161.824V145.824C315.46 145.824 306.337 147.14 298 149.889L303.01 165.084ZM325.285 161.824C337.622 161.824 347.527 164.193 355.351 168.517L363.09 154.513C352.359 148.583 339.641 145.824 325.285 145.824V161.824ZM355.424 168.556C363.654 172.993 369.644 178.661 373.705 185.498L387.461 177.326C381.757 167.724 373.505 160.127 363.017 154.473L355.424 168.556ZM373.723 185.528C377.878 192.453 379.907 199.742 379.907 207.535H395.907C395.907 196.773 393.054 186.647 387.443 177.296L373.723 185.528ZM387.907 199.535H364.47V215.535H387.907V199.535ZM372.47 207.535C372.47 199.692 370.786 192.421 367.191 185.95L353.204 193.72C355.306 197.503 356.47 202.032 356.47 207.535H372.47ZM367.216 185.996C363.522 179.241 357.956 174.083 350.876 170.493L343.64 184.763C348.115 187.032 351.176 190.012 353.178 193.673L367.216 185.996ZM350.955 170.533C343.698 166.752 335 165.111 325.285 165.111V181.111C333.311 181.111 339.261 182.482 343.561 184.722L350.955 170.533ZM325.285 165.111C316.172 165.111 308.009 166.472 301.174 169.635L307.893 184.156C311.962 182.273 317.634 181.111 325.285 181.111V165.111ZM301.174 169.635C294.569 172.691 289.185 177.058 285.535 182.921L299.117 191.378C300.838 188.614 303.592 186.146 307.893 184.156L301.174 169.635ZM285.478 183.014C282.047 188.696 280.42 195.076 280.42 201.92H296.42C296.42 197.696 297.397 194.229 299.175 191.284L285.478 183.014ZM280.42 201.92C280.42 206.801 281.437 211.458 283.584 215.752L297.895 208.596C296.949 206.705 296.42 204.526 296.42 201.92H280.42ZM283.702 215.978C285.963 220.161 289.257 223.776 293.263 226.903L303.108 214.29C300.441 212.209 298.771 210.209 297.777 208.37L283.702 215.978ZM293.337 226.96C297.428 230.077 302.37 232.788 308.015 235.17L314.235 220.428C309.463 218.415 305.779 216.325 303.034 214.233L293.337 226.96ZM308.056 235.187C313.728 237.543 320.36 239.759 327.905 241.855L332.187 226.438C325.083 224.465 319.102 222.45 314.194 220.411L308.056 235.187ZM327.873 241.846C337.645 244.604 345.905 247.63 352.72 250.886L359.618 236.45C351.784 232.707 342.629 229.386 332.219 226.447L327.873 241.846ZM352.72 250.886C359.492 254.122 364.789 257.644 368.784 261.364L379.687 249.654C374.242 244.584 367.494 240.213 359.618 236.45L352.72 250.886ZM368.889 261.46C372.869 265.035 375.672 268.987 377.458 273.325L392.253 267.233C389.482 260.504 385.205 254.609 379.581 249.557L368.889 261.46ZM377.514 273.457C379.374 277.755 380.396 282.832 380.396 288.834H396.396C396.396 281.001 395.057 273.708 392.197 267.102L377.514 273.457ZM380.396 288.834C380.396 294.968 379.163 300.274 376.846 304.91L391.156 312.065C394.698 304.982 396.396 297.186 396.396 288.834H380.396ZM376.846 304.91C374.488 309.625 371.108 313.691 366.582 317.136L376.273 329.868C382.653 325.012 387.655 319.069 391.156 312.065L376.846 304.91ZM366.582 317.136C362.013 320.614 356.365 323.431 349.491 325.478L354.058 340.813C362.483 338.303 369.937 334.691 376.273 329.868L366.582 317.136ZM349.544 325.463C342.821 327.415 335.125 328.441 326.384 328.441V344.441C336.36 344.441 345.591 343.271 354.005 340.828L349.544 325.463ZM326.384 328.441C318.915 328.441 311.557 327.408 304.29 325.331L299.894 340.716C308.577 343.197 317.414 344.441 326.384 344.441V328.441ZM304.31 325.337C297.234 323.295 290.837 320.251 285.073 316.216L275.898 329.323C283.154 334.403 291.162 338.195 299.873 340.71L304.31 325.337ZM285.112 316.243C279.592 312.33 275.207 307.556 271.887 301.882L258.078 309.965C262.57 317.638 268.521 324.095 275.859 329.296L285.112 316.243ZM271.944 301.982C268.892 296.592 267.245 290.175 267.245 282.486H251.245C251.245 292.538 253.423 301.746 258.021 309.866L271.944 301.982ZM259.245 290.486H282.683V274.486H259.245V290.486ZM274.683 282.486C274.683 289.619 276.065 296.227 279.175 302.018L293.271 294.448C291.661 291.45 290.683 287.561 290.683 282.486H274.683ZM279.205 302.073C282.161 307.477 286.212 311.983 291.279 315.529L300.454 302.422C297.382 300.272 295.004 297.616 293.241 294.393L279.205 302.073ZM291.339 315.572C296.295 318.972 301.822 321.454 307.851 323.055L311.958 307.591C307.57 306.426 303.738 304.675 300.393 302.379L291.339 315.572ZM307.992 323.091C313.936 324.554 320.072 325.276 326.384 325.276V309.276C321.302 309.276 316.452 308.696 311.816 307.555L307.992 323.091ZM326.384 325.276C335.295 325.276 343.326 324.047 350.229 321.286L344.287 306.431C339.796 308.227 333.911 309.276 326.384 309.276V325.276ZM350.229 321.286C357.099 318.538 362.791 314.4 366.775 308.646L353.62 299.539C351.744 302.249 348.81 304.621 344.287 306.431L350.229 321.286ZM366.716 308.731C370.798 302.993 372.714 296.323 372.714 289.078H356.714C356.714 293.389 355.619 296.729 353.679 299.455L366.716 308.731Z" fill="#FF0000"/>
</g>
<g style="mix-blend-mode:hard-light" filter="url(#filter1_ddi_0_1)">
<path d="M188.215 158.766V153.766H183.215V158.766H188.215ZM211.652 158.766H216.652V153.766H211.652V158.766ZM184.553 332.716L186.771 337.197L186.78 337.192L186.789 337.188L184.553 332.716ZM99.4697 287.306V282.306H94.4697V287.306H99.4697ZM123.029 287.306H128.029V282.306H123.029V287.306ZM138.654 316.358L136.54 320.889L136.554 320.896L136.568 320.903L138.654 316.358ZM172.224 315.87L174.577 320.282L174.59 320.275L174.603 320.268L172.224 315.87ZM183.942 304.029L188.329 306.428L188.337 306.414L188.345 306.4L183.942 304.029ZM193.215 284.62V158.766H183.215V284.62H193.215ZM188.215 163.766H211.652V153.766H188.215V163.766ZM206.652 158.766V284.62H216.652V158.766H206.652ZM206.652 284.62C206.652 295.66 204.393 304.612 200.155 311.723L208.745 316.843C214.11 307.841 216.652 297.017 216.652 284.62H206.652ZM200.155 311.723C195.848 318.951 189.933 324.435 182.317 328.244L186.789 337.188C196.099 332.533 203.45 325.728 208.745 316.843L200.155 311.723ZM182.334 328.235C174.747 331.992 165.885 333.941 155.622 333.941V343.941C167.169 343.941 177.594 341.741 186.771 337.197L182.334 328.235ZM155.622 333.941C145.291 333.941 136.315 332.169 128.592 328.753L124.547 337.899C133.751 341.97 144.143 343.941 155.622 343.941V333.941ZM128.592 328.753C121.016 325.403 115.164 320.362 110.907 313.578L102.437 318.894C107.782 327.411 115.195 333.763 124.547 337.899L128.592 328.753ZM110.907 313.578C106.731 306.925 104.47 298.27 104.47 287.306H94.4697C94.4697 299.616 97.0103 310.249 102.437 318.894L110.907 313.578ZM99.4697 292.306H123.029V282.306H99.4697V292.306ZM118.029 287.306C118.029 295.373 119.516 302.453 122.848 308.235L131.512 303.242C129.31 299.42 128.029 294.212 128.029 287.306H118.029ZM122.848 308.235C126.112 313.899 130.699 318.163 136.54 320.889L140.769 311.827C136.844 309.996 133.782 307.18 131.512 303.242L122.848 308.235ZM136.568 320.903C142.285 323.526 148.67 324.776 155.622 324.776V314.776C149.878 314.776 144.952 313.748 140.74 311.814L136.568 320.903ZM155.622 324.776C162.53 324.776 168.888 323.316 174.577 320.282L169.871 311.458C165.794 313.633 161.084 314.776 155.622 314.776V324.776ZM174.603 320.268C180.46 317.099 185.044 312.437 188.329 306.428L179.556 301.63C177.145 306.039 173.916 309.27 169.845 311.472L174.603 320.268ZM188.345 306.4C191.678 300.209 193.215 292.876 193.215 284.62H183.215C183.215 291.663 181.903 297.27 179.54 301.659L188.345 306.4ZM227.058 314.894L223.358 311.53L223.353 311.536L227.058 314.894ZM247.932 314.894L244.176 318.194L244.229 318.255L244.284 318.313L247.932 314.894ZM247.932 334.059L244.284 330.639L244.255 330.67L244.227 330.701L247.932 334.059ZM227.058 334.059L223.353 337.416L223.381 337.447L223.41 337.478L227.058 334.059ZM228.518 324.537C228.518 321.834 229.313 319.851 230.763 318.251L223.353 311.536C220.083 315.144 218.518 319.59 218.518 324.537H228.518ZM230.757 318.257C232.019 316.869 234.021 315.865 237.556 315.865V305.865C231.975 305.865 226.979 307.547 223.358 311.53L230.757 318.257ZM237.556 315.865C241.098 315.865 243.013 316.871 244.176 318.194L251.687 311.593C248.13 307.545 243.128 305.865 237.556 305.865V315.865ZM244.284 318.313C245.791 319.921 246.594 321.883 246.594 324.537H256.594C256.594 319.541 254.955 315.075 251.579 311.474L244.284 318.313ZM246.594 324.537C246.594 327.079 245.811 329.01 244.284 330.639L251.579 337.478C254.935 333.899 256.594 329.483 256.594 324.537H246.594ZM244.227 330.701C243.076 331.97 241.145 332.965 237.556 332.965V342.965C243.081 342.965 248.067 341.355 251.637 337.416L244.227 330.701ZM237.556 332.965C233.975 332.965 231.956 331.973 230.705 330.639L223.41 337.478C227.042 341.352 232.022 342.965 237.556 342.965V332.965ZM230.763 330.701C229.293 329.08 228.518 327.128 228.518 324.537H218.518C218.518 329.433 220.102 333.829 223.353 337.416L230.763 330.701ZM360.261 280.592L355.579 282.347L355.606 282.419L355.635 282.49L360.261 280.592ZM353.669 271.803L350.448 275.627L350.473 275.648L350.497 275.668L353.669 271.803ZM340.729 264.356L338.743 268.945L338.756 268.95L338.768 268.956L340.729 264.356ZM319.978 257.154L318.557 261.948L318.568 261.952L318.579 261.955L319.978 257.154ZM296.174 248.487L294.085 253.03L294.107 253.04L294.129 253.05L296.174 248.487ZM278.84 170.24L282 174.115L282.006 174.11L278.84 170.24ZM356.721 164.015L354.302 168.391L354.325 168.403L354.348 168.416L356.721 164.015ZM378.083 183.912L373.784 186.466L373.79 186.475L373.796 186.485L378.083 183.912ZM385.407 210.035V215.035H390.407V210.035H385.407ZM361.97 210.035H356.97V215.035H361.97V210.035ZM357.697 192.335L353.31 194.734L353.318 194.749L353.326 194.763L357.697 192.335ZM344.758 180.128L342.447 184.562L342.472 184.575L342.497 184.587L344.758 180.128ZM289.826 189.649L285.582 187.007L285.564 187.036L285.546 187.065L289.826 189.649ZM288.239 214.674L283.767 216.91L283.803 216.981L283.841 217.051L288.239 214.674ZM295.686 223.097L292.609 227.038L292.632 227.056L292.655 227.074L295.686 223.097ZM308.625 230.299L306.681 234.906L306.694 234.911L306.707 234.916L308.625 230.299ZM327.546 236.646L328.904 231.834L328.894 231.832L328.884 231.829L327.546 236.646ZM371.735 258.009L368.328 261.668L368.361 261.699L368.394 261.728L371.735 258.009ZM382.355 272.779L377.732 274.683L377.749 274.724L377.767 274.765L382.355 272.779ZM368.928 326.002L365.899 322.023L368.928 326.002ZM349.274 335.646L350.668 340.447L350.685 340.442L350.702 340.437L349.274 335.646ZM299.592 335.523L298.205 340.327L298.218 340.331L299.592 335.523ZM277.985 325.27L275.094 329.349L275.106 329.357L275.118 329.366L277.985 325.27ZM262.482 308.424L258.132 310.888L258.149 310.919L258.167 310.95L262.482 308.424ZM256.745 284.986V279.986H251.745V284.986H256.745ZM280.183 284.986H285.183V279.986H280.183V284.986ZM283.723 300.733L279.318 303.099L279.327 303.116L279.336 303.133L283.723 300.733ZM293.366 311.476L290.499 315.572L290.518 315.585L290.537 315.598L293.366 311.476ZM307.404 317.823L306.121 322.656L306.165 322.667L306.209 322.678L307.404 317.823ZM357.697 306.593L353.623 303.694L353.605 303.72L353.586 303.747L357.697 306.593ZM367.214 291.578C367.214 286.91 366.482 282.582 364.887 278.694L355.635 282.49C356.644 284.949 357.214 287.945 357.214 291.578H367.214ZM364.942 278.836C363.361 274.619 360.571 270.998 356.841 267.937L350.497 275.668C353.115 277.816 354.719 280.054 355.579 282.347L364.942 278.836ZM356.89 267.978C353.282 264.94 348.481 262.227 342.691 259.757L338.768 268.956C344.046 271.206 347.871 273.457 350.448 275.627L356.89 267.978ZM342.716 259.768C337.006 257.296 329.875 254.829 321.376 252.354L318.579 261.955C326.845 264.362 333.548 266.696 338.743 268.945L342.716 259.768ZM321.398 252.36C312.785 249.808 305.064 246.993 298.219 243.925L294.129 253.05C301.444 256.329 309.592 259.292 318.557 261.948L321.398 252.36ZM298.262 243.944C291.5 240.835 285.819 237.348 281.162 233.517L274.809 241.24C280.243 245.71 286.687 249.629 294.085 253.03L298.262 243.944ZM281.162 233.517C276.609 229.773 273.206 225.552 270.861 220.861L261.917 225.333C264.942 231.384 269.271 236.685 274.809 241.24L281.162 233.517ZM270.861 220.861C268.572 216.282 267.36 210.923 267.36 204.664H257.36C257.36 212.239 258.835 219.169 261.917 225.333L270.861 220.861ZM267.36 204.664C267.36 198.456 268.633 192.821 271.13 187.685L262.136 183.313C258.936 189.895 257.36 197.037 257.36 204.664H267.36ZM271.13 187.685C273.645 182.51 277.246 177.992 282 174.115L275.68 166.365C269.855 171.115 265.317 176.769 262.136 183.313L271.13 187.685ZM282.006 174.11C286.847 170.149 292.676 167.008 299.57 164.735L296.439 155.238C288.522 157.848 281.575 161.542 275.674 166.37L282.006 174.11ZM299.57 164.735C306.394 162.485 314.115 161.324 322.785 161.324V151.324C313.226 151.324 304.427 152.604 296.439 155.238L299.57 164.735ZM322.785 161.324C335.501 161.324 345.933 163.766 354.302 168.391L359.139 159.638C348.953 154.009 336.762 151.324 322.785 151.324V161.324ZM354.348 168.416C363.001 173.081 369.415 179.11 373.784 186.466L382.382 181.358C376.986 172.275 369.158 165.04 359.093 159.614L354.348 168.416ZM373.796 186.485C378.223 193.864 380.407 201.686 380.407 210.035H390.407C390.407 199.83 387.708 190.236 382.37 181.34L373.796 186.485ZM385.407 205.035H361.97V215.035H385.407V205.035ZM366.97 210.035C366.97 202.631 365.383 195.874 362.068 189.907L353.326 194.763C355.708 199.05 356.97 204.093 356.97 210.035H366.97ZM362.084 189.936C358.707 183.761 353.611 179.011 347.019 175.668L342.497 184.587C347.46 187.104 350.991 190.492 353.31 194.734L362.084 189.936ZM347.069 175.694C340.366 172.201 332.183 170.611 322.785 170.611V180.611C331.128 180.611 337.593 182.032 342.447 184.562L347.069 175.694ZM322.785 170.611C313.946 170.611 306.25 171.935 299.934 174.858L304.133 183.933C308.721 181.81 314.86 180.611 322.785 180.611V170.611ZM299.934 174.858C293.761 177.714 288.87 181.725 285.582 187.007L294.071 192.292C296.153 188.948 299.4 186.123 304.133 183.933L299.934 174.858ZM285.546 187.065C282.425 192.234 280.92 198.068 280.92 204.42H290.92C290.92 199.705 292.019 195.692 294.106 192.234L285.546 187.065ZM280.92 204.42C280.92 208.874 281.846 213.067 283.767 216.91L292.711 212.438C291.54 210.096 290.92 207.453 290.92 204.42H280.92ZM283.841 217.051C285.864 220.795 288.854 224.107 292.609 227.038L298.762 219.155C295.844 216.878 293.869 214.575 292.638 212.296L283.841 217.051ZM292.655 227.074C296.494 229.998 301.2 232.593 306.681 234.906L310.569 225.692C305.633 223.61 301.713 221.403 298.716 219.12L292.655 227.074ZM306.707 234.916C312.235 237.213 318.746 239.391 326.208 241.464L328.884 231.829C321.698 229.833 315.594 227.78 310.543 225.681L306.707 234.916ZM326.188 241.458C336.08 244.251 344.507 247.332 351.513 250.679L355.824 241.656C348.182 238.005 339.195 234.739 328.904 231.834L326.188 241.458ZM351.513 250.679C358.492 254.014 364.061 257.696 368.328 261.668L375.142 254.349C369.969 249.533 363.494 245.321 355.824 241.656L351.513 250.679ZM368.394 261.728C372.682 265.58 375.761 269.896 377.732 274.683L386.979 270.876C384.393 264.594 380.392 259.064 375.077 254.289L368.394 261.728ZM377.767 274.765C379.815 279.496 380.896 284.989 380.896 291.334H390.896C390.896 283.845 389.616 276.967 386.944 270.793L377.767 274.765ZM380.896 291.334C380.896 297.884 379.576 303.657 377.029 308.751L385.973 313.223C389.285 306.599 390.896 299.27 390.896 291.334H380.896ZM377.029 308.751C374.457 313.895 370.772 318.314 365.899 322.023L371.956 329.98C377.988 325.389 382.686 319.798 385.973 313.223L377.029 308.751ZM365.899 322.023C360.999 325.753 355.012 328.719 347.847 330.854L350.702 340.437C358.836 338.014 365.951 334.551 371.956 329.98L365.899 322.023ZM347.88 330.844C340.84 332.888 332.856 333.941 323.884 333.941V343.941C333.629 343.941 342.572 342.798 350.668 340.447L347.88 330.844ZM323.884 333.941C316.133 333.941 308.498 332.868 300.965 330.716L298.218 340.331C306.636 342.736 315.196 343.941 323.884 343.941V333.941ZM300.978 330.72C293.596 328.588 286.897 325.404 280.853 321.173L275.118 329.366C282.095 334.249 289.8 337.901 298.205 340.327L300.978 330.72ZM280.877 321.19C275.016 317.036 270.338 311.946 266.797 305.898L258.167 310.95C262.439 318.248 268.097 324.389 275.094 329.349L280.877 321.19ZM266.833 305.96C263.492 300.059 261.745 293.118 261.745 284.986H251.745C251.745 294.595 253.824 303.28 258.132 310.888L266.833 305.96ZM256.745 289.986H280.183V279.986H256.745V289.986ZM275.183 284.986C275.183 291.733 276.489 297.832 279.318 303.099L288.128 298.368C286.236 294.846 285.183 290.447 285.183 284.986H275.183ZM279.336 303.133C282.069 308.128 285.807 312.287 290.499 315.572L296.234 307.379C292.788 304.967 290.096 301.965 288.109 298.333L279.336 303.133ZM290.537 315.598C295.191 318.792 300.4 321.136 306.121 322.656L308.688 312.991C303.992 311.744 299.843 309.856 296.195 307.353L290.537 315.598ZM306.209 322.678C311.907 324.081 317.803 324.776 323.884 324.776V314.776C318.572 314.776 313.481 314.17 308.599 312.968L306.209 322.678ZM323.884 324.776C332.536 324.776 340.164 323.581 346.615 321.001L342.901 311.716C337.958 313.693 331.671 314.776 323.884 314.776V324.776ZM346.615 321.001C353.045 318.429 358.22 314.622 361.808 309.439L353.586 303.747C351.315 307.027 347.864 309.731 342.901 311.716L346.615 321.001ZM361.771 309.492C365.452 304.319 367.214 298.273 367.214 291.578H357.214C357.214 296.439 355.965 300.403 353.623 303.694L361.771 309.492Z" fill="#FF0000" fill-opacity="0.2"/>
</g>
<g filter="url(#filter2_f_0_1)">
<path d="M190.715 156.266V154.266H188.715V156.266H190.715ZM214.152 156.266H216.152V154.266H214.152V156.266ZM187.053 330.216L187.94 332.008L187.947 332.005L187.053 330.216ZM101.97 284.806V282.806H99.9697V284.806H101.97ZM125.529 284.806H127.529V282.806H125.529V284.806ZM141.154 313.858L140.309 315.671L140.32 315.676L141.154 313.858ZM174.724 313.37L175.665 315.135L175.675 315.129L174.724 313.37ZM186.442 301.529L188.197 302.489L188.203 302.477L186.442 301.529ZM192.715 282.12V156.266H188.715V282.12H192.715ZM190.715 158.266H214.152V154.266H190.715V158.266ZM212.152 156.266V282.12H216.152V156.266H212.152ZM212.152 282.12C212.152 293.568 209.808 303.081 205.232 310.759L208.668 312.807C213.695 304.372 216.152 294.11 216.152 282.12H212.152ZM205.232 310.759C200.628 318.484 194.283 324.365 186.158 328.427L187.947 332.005C196.749 327.604 203.669 321.195 208.668 312.807L205.232 310.759ZM186.165 328.423C178.101 332.416 168.77 334.441 158.122 334.441V338.441C169.284 338.441 179.24 336.316 187.94 332.008L186.165 328.423ZM158.122 334.441C147.447 334.441 138.046 332.61 129.878 328.997L128.26 332.655C137.02 336.53 146.988 338.441 158.122 338.441V334.441ZM129.878 328.997C121.77 325.411 115.45 319.976 110.866 312.673L107.478 314.8C112.497 322.796 119.442 328.755 128.26 332.655L129.878 328.997ZM110.866 312.673C106.314 305.422 103.97 296.174 103.97 284.806H99.9697C99.9697 296.712 102.426 306.751 107.478 314.8L110.866 312.673ZM101.97 286.806H125.529V282.806H101.97V286.806ZM123.529 284.806C123.529 292.525 124.954 299.043 127.947 304.237L131.413 302.24C128.872 297.83 127.529 292.061 127.529 284.806H123.529ZM127.947 304.237C130.913 309.383 135.042 313.213 140.309 315.671L142 312.046C137.501 309.946 133.981 306.696 131.413 302.24L127.947 304.237ZM140.32 315.676C145.585 318.093 151.533 319.276 158.122 319.276V315.276C152.016 315.276 146.652 314.181 141.989 312.041L140.32 315.676ZM158.122 319.276C164.596 319.276 170.46 317.911 175.665 315.135L173.782 311.605C169.222 314.038 164.018 315.276 158.122 315.276V319.276ZM175.675 315.129C180.997 312.25 185.174 308.017 188.197 302.489L184.688 300.57C182.014 305.458 178.379 309.119 173.772 311.611L175.675 315.129ZM188.203 302.477C191.246 296.827 192.715 290.013 192.715 282.12H188.715C188.715 289.527 187.336 295.652 184.681 300.581L188.203 302.477ZM229.558 312.394L228.078 311.048L228.076 311.051L229.558 312.394ZM250.432 312.394L248.929 313.714L248.951 313.738L248.973 313.761L250.432 312.394ZM250.432 331.559L248.973 330.191L248.961 330.203L248.95 330.216L250.432 331.559ZM229.558 331.559L228.076 332.902L228.087 332.914L228.099 332.926L229.558 331.559ZM228.018 322.037C228.018 318.661 229.044 315.939 231.04 313.737L228.076 311.051C225.352 314.056 224.018 317.763 224.018 322.037H228.018ZM231.037 313.739C233.007 311.572 235.908 310.365 240.056 310.365V306.365C235.089 306.365 230.991 307.844 228.078 311.048L231.037 313.739ZM240.056 310.365C244.207 310.365 247.048 311.573 248.929 313.714L251.934 311.073C249.095 307.843 245.019 306.365 240.056 306.365V310.365ZM248.973 313.761C251.04 315.967 252.094 318.681 252.094 322.037H256.094C256.094 317.744 254.706 314.029 251.891 311.026L248.973 313.761ZM252.094 322.037C252.094 325.3 251.048 327.977 248.973 330.191L251.891 332.926C254.698 329.932 256.094 326.261 256.094 322.037H252.094ZM248.95 330.216C247.074 332.286 244.226 333.465 240.056 333.465V337.465C245 337.465 249.07 336.04 251.914 332.902L248.95 330.216ZM240.056 333.465C235.889 333.465 232.982 332.287 231.017 330.191L228.099 332.926C231.016 336.039 235.108 337.465 240.056 337.465V333.465ZM231.04 330.216C229.036 328.005 228.018 325.319 228.018 322.037H224.018C224.018 326.242 225.359 329.904 228.076 332.902L231.04 330.216ZM362.761 278.092L360.888 278.794L360.899 278.823L360.91 278.851L362.761 278.092ZM356.169 269.303L354.881 270.833L354.89 270.841L354.9 270.849L356.169 269.303ZM343.229 261.856L342.435 263.692L342.445 263.696L343.229 261.856ZM322.478 254.654L321.909 256.572L321.918 256.575L322.478 254.654ZM298.674 245.987L297.838 247.804L297.847 247.808L297.856 247.812L298.674 245.987ZM281.34 167.74L282.604 169.29L282.606 169.288L281.34 167.74ZM359.221 161.515L358.253 163.265L358.262 163.27L358.272 163.275L359.221 161.515ZM380.583 181.412L378.864 182.434L378.868 182.441L380.583 181.412ZM387.907 207.535V209.535H389.907V207.535H387.907ZM364.47 207.535H362.47V209.535H364.47V207.535ZM360.197 189.835L358.442 190.795L358.449 190.806L360.197 189.835ZM347.258 177.628L346.334 179.402L346.343 179.407L346.353 179.412L347.258 177.628ZM292.326 187.149L290.628 186.092L290.621 186.104L290.614 186.116L292.326 187.149ZM290.739 212.174L288.95 213.068L288.965 213.097L288.98 213.125L290.739 212.174ZM298.186 220.597L296.955 222.173L296.964 222.18L296.973 222.188L298.186 220.597ZM311.125 227.799L310.348 229.642L310.358 229.646L311.125 227.799ZM330.046 234.146L330.589 232.222L330.581 232.219L330.046 234.146ZM374.235 255.509L372.873 256.973L372.886 256.985L372.899 256.997L374.235 255.509ZM384.855 270.279L383.006 271.041L383.013 271.057L383.02 271.074L384.855 270.279ZM371.428 323.502L370.216 321.911L371.428 323.502ZM351.774 333.146L352.332 335.066L352.345 335.062L351.774 333.146ZM302.092 333.023L301.537 334.945L301.542 334.946L302.092 333.023ZM280.485 322.77L279.329 324.401L279.338 324.408L280.485 322.77ZM264.982 305.924L263.242 306.909L263.249 306.922L263.256 306.934L264.982 305.924ZM259.245 282.486V280.486H257.245V282.486H259.245ZM282.683 282.486H284.683V280.486H282.683V282.486ZM286.223 298.233L284.461 299.18L284.464 299.187L284.468 299.193L286.223 298.233ZM295.866 308.976L294.719 310.614L294.727 310.619L294.735 310.625L295.866 308.976ZM309.904 315.323L309.391 317.256L309.409 317.261L309.426 317.265L309.904 315.323ZM360.197 304.093L358.568 302.933L358.56 302.944L358.553 302.954L360.197 304.093ZM366.714 289.078C366.714 284.721 366.03 280.792 364.611 277.333L360.91 278.851C362.095 281.739 362.714 285.135 362.714 289.078H366.714ZM364.633 277.39C363.268 273.75 360.834 270.543 357.438 267.757L354.9 270.849C357.852 273.27 359.812 275.924 360.888 278.794L364.633 277.39ZM357.457 267.773C354.159 264.995 349.65 262.42 344.014 260.017L342.445 263.696C347.876 266.012 351.994 268.402 354.881 270.833L357.457 267.773ZM344.024 260.021C338.469 257.616 331.466 255.189 323.037 252.734L321.918 256.575C330.254 259.002 337.086 261.376 342.435 263.692L344.024 260.021ZM323.046 252.737C314.327 250.153 306.478 247.294 299.492 244.162L297.856 247.812C305.03 251.028 313.05 253.947 321.909 256.572L323.046 252.737ZM299.509 244.17C292.556 240.973 286.646 237.357 281.756 233.334L279.215 236.423C284.416 240.702 290.631 244.491 297.838 247.804L299.509 244.17ZM281.756 233.334C276.907 229.346 273.227 224.801 270.678 219.702L267.1 221.491C269.921 227.134 273.972 232.111 279.215 236.423L281.756 233.334ZM270.678 219.702C268.151 214.648 266.86 208.818 266.86 202.164H262.86C262.86 209.345 264.256 215.803 267.1 221.491L270.678 219.702ZM266.86 202.164C266.86 195.531 268.224 189.444 270.932 183.873L267.334 182.125C264.345 188.273 262.86 194.963 262.86 202.164H266.86ZM270.932 183.873C273.647 178.288 277.528 173.429 282.604 169.29L280.076 166.19C274.572 170.678 270.316 175.991 267.334 182.125L270.932 183.873ZM282.606 169.288C287.765 165.067 293.93 161.76 301.131 159.386L299.879 155.587C292.269 158.096 285.657 161.624 280.073 166.192L282.606 169.288ZM301.131 159.386C308.304 157.021 316.348 155.824 325.285 155.824V151.824C315.993 151.824 307.517 153.069 299.879 155.587L301.131 159.386ZM325.285 155.824C338.379 155.824 349.339 158.339 358.253 163.265L360.188 159.764C350.547 154.436 338.884 151.824 325.285 151.824V155.824ZM358.272 163.275C367.348 168.169 374.186 174.56 378.864 182.434L382.302 180.391C377.214 171.826 369.811 164.952 360.17 159.754L358.272 163.275ZM378.868 182.441C383.569 190.276 385.907 198.629 385.907 207.535H389.907C389.907 197.887 387.363 188.824 382.298 180.383L378.868 182.441ZM387.907 205.535H364.47V209.535H387.907V205.535ZM366.47 207.535C366.47 200.57 364.981 194.327 361.946 188.864L358.449 190.806C361.111 195.597 362.47 201.154 362.47 207.535H366.47ZM361.952 188.875C358.892 183.28 354.266 178.939 348.162 175.844L346.353 179.412C351.806 182.176 355.806 185.973 358.443 190.795L361.952 188.875ZM348.182 175.854C342.034 172.651 334.367 171.111 325.285 171.111V175.111C333.945 175.111 340.925 176.583 346.334 179.402L348.182 175.854ZM325.285 171.111C316.72 171.111 309.492 172.398 303.693 175.08L305.373 178.711C310.48 176.348 317.086 175.111 325.285 175.111V171.111ZM303.693 175.08C297.953 177.736 293.555 181.392 290.628 186.092L294.024 188.207C296.468 184.281 300.209 181.1 305.373 178.711L303.693 175.08ZM290.614 186.116C287.803 190.771 286.42 196.059 286.42 201.92H290.42C290.42 196.713 291.641 192.154 294.038 188.183L290.614 186.116ZM286.42 201.92C286.42 205.948 287.254 209.676 288.95 213.068L292.528 211.279C291.132 208.487 290.42 205.379 290.42 201.92H286.42ZM288.98 213.125C290.766 216.429 293.451 219.438 296.955 222.173L299.416 219.02C296.247 216.547 293.968 213.941 292.499 211.223L288.98 213.125ZM296.973 222.188C300.56 224.92 305.03 227.398 310.348 229.642L311.902 225.956C306.803 223.805 302.648 221.482 299.398 219.006L296.973 222.188ZM310.358 229.646C315.743 231.883 322.131 234.024 329.511 236.074L330.581 232.219C323.312 230.2 317.087 228.109 311.892 225.952L310.358 229.646ZM329.503 236.071C339.514 238.897 348.11 242.034 355.307 245.473L357.031 241.863C349.58 238.303 340.76 235.092 330.589 232.222L329.503 236.071ZM355.307 245.473C362.493 248.906 368.334 252.747 372.873 256.973L375.598 254.045C370.697 249.482 364.493 245.429 357.031 241.863L355.307 245.473ZM372.899 256.997C377.495 261.125 380.851 265.806 383.006 271.041L386.705 269.518C384.303 263.685 380.579 258.519 375.572 254.021L372.899 256.997ZM383.02 271.074C385.255 276.238 386.396 282.146 386.396 288.834H390.396C390.396 281.688 389.176 275.226 386.691 269.485L383.02 271.074ZM386.396 288.834C386.396 295.8 384.989 302.04 382.212 307.593L385.79 309.382C388.873 303.216 390.396 296.354 390.396 288.834H386.396ZM382.212 307.593C379.425 313.166 375.437 317.937 370.216 321.911L372.639 325.093C378.323 320.767 382.717 315.527 385.79 309.382L382.212 307.593ZM370.216 321.911C364.985 325.893 358.659 329.008 351.203 331.229L352.345 335.062C360.189 332.726 366.966 329.412 372.639 325.093L370.216 321.911ZM351.217 331.225C343.86 333.361 335.588 334.441 326.384 334.441V338.441C335.897 338.441 344.552 337.325 352.332 335.066L351.217 331.225ZM326.384 334.441C318.352 334.441 310.439 333.328 302.641 331.1L301.542 334.946C309.695 337.276 317.977 338.441 326.384 338.441V334.441ZM302.646 331.102C294.957 328.882 287.956 325.558 281.632 321.131L279.338 324.408C286.035 329.096 293.439 332.607 301.537 334.945L302.646 331.102ZM281.642 321.138C275.44 316.742 270.468 311.337 266.708 304.913L263.256 306.934C267.309 313.857 272.672 319.683 279.329 324.401L281.642 321.138ZM266.723 304.938C263.091 298.525 261.245 291.061 261.245 282.486H257.245C257.245 291.652 259.224 299.813 263.242 306.909L266.723 304.938ZM259.245 284.486H282.683V280.486H259.245V284.486ZM280.683 282.486C280.683 288.847 281.913 294.436 284.461 299.18L287.985 297.287C285.812 293.242 284.683 288.333 284.683 282.486H280.683ZM284.468 299.193C286.977 303.779 290.401 307.591 294.719 310.614L297.013 307.337C293.193 304.663 290.188 301.314 287.977 297.273L284.468 299.193ZM294.735 310.625C299.086 313.611 303.977 315.818 309.391 317.256L310.418 313.39C305.415 312.061 300.947 310.037 296.998 307.327L294.735 310.625ZM309.426 317.265C314.879 318.608 320.533 319.276 326.384 319.276V315.276C320.841 315.276 315.509 314.643 310.382 313.381L309.426 317.265ZM326.384 319.276C334.776 319.276 342.002 318.115 348.001 315.715L346.515 312.001C341.12 314.159 334.43 315.276 326.384 315.276V319.276ZM348.001 315.715C353.991 313.319 358.649 309.844 361.842 305.231L358.553 302.954C355.887 306.806 351.918 309.84 346.515 312.001L348.001 315.715ZM361.827 305.252C365.106 300.644 366.714 295.223 366.714 289.078H362.714C362.714 294.489 361.311 299.078 358.568 302.933L361.827 305.252Z" fill="#FF9983"/>
</g>
<g filter="url(#filter3_f_0_1)">
<path d="M190.715 156.266V152.266H186.715V156.266H190.715ZM214.152 156.266H218.152V152.266H214.152V156.266ZM187.053 330.216L188.828 333.8L188.835 333.797L188.842 333.794L187.053 330.216ZM101.97 284.806V280.806H97.9697V284.806H101.97ZM125.529 284.806H129.529V280.806H125.529V284.806ZM141.154 313.858L139.463 317.483L139.474 317.488L139.486 317.494L141.154 313.858ZM174.724 313.37L176.606 316.9L176.616 316.894L176.627 316.888L174.724 313.37ZM186.442 301.529L189.952 303.449L189.958 303.437L189.964 303.426L186.442 301.529ZM194.715 282.12V156.266H186.715V282.12H194.715ZM190.715 160.266H214.152V152.266H190.715V160.266ZM210.152 156.266V282.12H218.152V156.266H210.152ZM210.152 282.12C210.152 293.296 207.865 302.435 203.514 309.735L210.386 313.831C215.638 305.018 218.152 294.382 218.152 282.12H210.152ZM203.514 309.735C199.108 317.129 193.05 322.745 185.264 326.638L188.842 333.794C197.983 329.223 205.19 322.551 210.386 313.831L203.514 309.735ZM185.278 326.631C177.532 330.466 168.513 332.441 158.122 332.441V340.441C169.541 340.441 179.809 338.266 188.828 333.8L185.278 326.631ZM158.122 332.441C147.676 332.441 138.559 330.65 130.687 327.168L127.451 334.484C136.507 338.49 146.758 340.441 158.122 340.441V332.441ZM130.687 327.168C122.934 323.739 116.926 318.566 112.56 311.61L105.784 315.863C111.02 324.206 118.277 330.427 127.451 334.484L130.687 327.168ZM112.56 311.61C108.259 304.757 105.97 295.905 105.97 284.806H97.9697C97.9697 296.981 100.482 307.416 105.784 315.863L112.56 311.61ZM101.97 288.806H125.529V280.806H101.97V288.806ZM121.529 284.806C121.529 292.757 122.995 299.65 126.214 305.235L133.145 301.241C130.83 297.224 129.529 291.828 129.529 284.806H121.529ZM126.214 305.235C129.379 310.727 133.813 314.847 139.463 317.483L142.846 310.234C138.73 308.313 135.515 305.352 133.145 301.241L126.214 305.235ZM139.486 317.494C145.052 320.049 151.291 321.276 158.122 321.276V313.276C152.258 313.276 147.185 312.226 142.823 310.223L139.486 317.494ZM158.122 321.276C164.885 321.276 171.078 319.848 176.606 316.9L172.841 309.841C168.603 312.101 163.729 313.276 158.122 313.276V321.276ZM176.627 316.888C182.305 313.816 186.754 309.297 189.952 303.449L182.933 299.61C180.435 304.179 177.07 307.553 172.82 309.852L176.627 316.888ZM189.964 303.426C193.201 297.415 194.715 290.255 194.715 282.12H186.715C186.715 289.285 185.381 295.064 182.92 299.633L189.964 303.426ZM229.558 312.394L226.598 309.703L226.594 309.707L229.558 312.394ZM250.432 312.394L247.427 315.034L247.469 315.082L247.513 315.129L250.432 312.394ZM250.432 331.559L247.513 328.823L247.49 328.847L247.468 328.873L250.432 331.559ZM229.558 331.559L226.594 334.245L226.616 334.27L226.639 334.294L229.558 331.559ZM230.018 322.037C230.018 319.11 230.89 316.88 232.522 315.08L226.594 309.707C223.506 313.115 222.018 317.315 222.018 322.037H230.018ZM232.517 315.084C234.015 313.436 236.317 312.365 240.056 312.365V304.365C234.68 304.365 229.983 305.98 226.598 309.703L232.517 315.084ZM240.056 312.365C243.801 312.365 246.025 313.438 247.427 315.034L253.436 309.753C250.119 305.978 245.425 304.365 240.056 304.365V312.365ZM247.513 315.129C249.207 316.936 250.094 319.149 250.094 322.037H258.094C258.094 317.276 256.539 313.059 253.35 309.658L247.513 315.129ZM250.094 322.037C250.094 324.819 249.223 326.999 247.513 328.823L253.35 334.294C256.523 330.91 258.094 326.742 258.094 322.037H250.094ZM247.468 328.873C246.075 330.409 243.839 331.465 240.056 331.465V339.465C245.387 339.465 250.068 337.917 253.396 334.245L247.468 328.873ZM240.056 331.465C236.28 331.465 233.965 330.411 232.476 328.823L226.639 334.294C230.033 337.915 234.717 339.465 240.056 339.465V331.465ZM232.522 328.873C230.874 327.055 230.018 324.858 230.018 322.037H222.018C222.018 326.703 223.521 330.854 226.594 334.245L232.522 328.873ZM362.761 278.092L359.015 279.496L359.037 279.553L359.06 279.61L362.761 278.092ZM356.169 269.303L353.592 272.362L353.612 272.379L353.632 272.395L356.169 269.303ZM343.229 261.856L341.641 265.527L341.65 265.532L341.66 265.536L343.229 261.856ZM322.478 254.654L321.341 258.489L321.35 258.492L321.359 258.495L322.478 254.654ZM298.674 245.987L297.003 249.622L297.02 249.63L297.038 249.637L298.674 245.987ZM281.34 167.74L283.868 170.84L283.873 170.836L281.34 167.74ZM359.221 161.515L357.286 165.016L357.304 165.026L357.322 165.036L359.221 161.515ZM380.583 181.412L377.144 183.455L377.149 183.463L377.153 183.47L380.583 181.412ZM387.907 207.535V211.535H391.907V207.535H387.907ZM364.47 207.535H360.47V211.535H364.47V207.535ZM360.197 189.835L356.688 191.754L356.694 191.766L356.701 191.778L360.197 189.835ZM347.258 177.628L345.409 181.175L345.429 181.185L345.449 181.196L347.258 177.628ZM292.326 187.149L288.931 185.035L288.916 185.058L288.902 185.082L292.326 187.149ZM290.739 212.174L287.162 213.963L287.19 214.02L287.22 214.076L290.739 212.174ZM298.186 220.597L295.724 223.75L295.743 223.764L295.761 223.778L298.186 220.597ZM311.125 227.799L309.57 231.484L309.58 231.489L309.591 231.493L311.125 227.799ZM330.046 234.146L331.132 230.297L331.124 230.295L331.116 230.292L330.046 234.146ZM374.235 255.509L371.51 258.436L371.536 258.461L371.562 258.484L374.235 255.509ZM384.855 270.279L381.157 271.802L381.17 271.835L381.185 271.868L384.855 270.279ZM371.428 323.502L369.005 320.319L371.428 323.502ZM351.774 333.146L352.89 336.987L352.903 336.983L352.916 336.979L351.774 333.146ZM302.092 333.023L300.982 336.867L300.993 336.87L302.092 333.023ZM280.485 322.77L278.172 326.033L278.182 326.04L278.192 326.046L280.485 322.77ZM264.982 305.924L261.502 307.895L261.516 307.92L261.53 307.945L264.982 305.924ZM259.245 282.486V278.486H255.245V282.486H259.245ZM282.683 282.486H286.683V278.486H282.683V282.486ZM286.223 298.233L282.699 300.126L282.706 300.14L282.714 300.153L286.223 298.233ZM295.866 308.976L293.572 312.253L293.588 312.263L293.603 312.274L295.866 308.976ZM309.904 315.323L308.877 319.189L308.913 319.199L308.948 319.207L309.904 315.323ZM360.197 304.093L356.938 301.774L356.923 301.795L356.908 301.816L360.197 304.093ZM368.714 289.078C368.714 284.514 367.998 280.319 366.461 276.574L359.06 279.61C360.128 282.212 360.714 285.342 360.714 289.078H368.714ZM366.506 276.687C364.997 272.663 362.325 269.18 358.706 266.21L353.632 272.395C356.36 274.634 358.083 277.011 359.015 279.496L366.506 276.687ZM358.745 266.243C355.241 263.292 350.537 260.625 344.799 258.177L341.66 265.536C346.989 267.808 350.912 270.105 353.592 272.362L358.745 266.243ZM344.818 258.186C339.16 255.736 332.072 253.282 323.596 250.814L321.359 258.495C329.648 260.909 336.394 263.256 341.641 265.527L344.818 258.186ZM323.614 250.819C314.966 248.257 307.202 245.427 300.31 242.337L297.038 249.637C304.306 252.896 312.411 255.844 321.341 258.489L323.614 250.819ZM300.345 242.353C293.519 239.215 287.761 235.685 283.026 231.79L277.944 237.968C283.3 242.374 289.669 246.249 297.003 249.622L300.345 242.353ZM283.026 231.79C278.375 227.964 274.88 223.635 272.466 218.808L265.311 222.386C268.269 228.301 272.504 233.493 277.944 237.968L283.026 231.79ZM272.466 218.808C270.098 214.071 268.86 208.555 268.86 202.164H260.86C260.86 209.608 262.308 216.38 265.311 222.386L272.466 218.808ZM268.86 202.164C268.86 195.814 270.163 190.029 272.73 184.748L265.535 181.25C262.406 187.688 260.86 194.679 260.86 202.164H268.86ZM272.73 184.748C275.312 179.436 279.006 174.804 283.868 170.84L278.812 164.64C273.094 169.303 268.65 174.843 265.535 181.25L272.73 184.748ZM283.873 170.836C288.82 166.789 294.761 163.592 301.757 161.285L299.253 153.687C291.438 156.264 284.602 159.903 278.807 164.644L283.873 170.836ZM301.757 161.285C308.697 158.997 316.526 157.824 325.285 157.824V149.824C315.815 149.824 307.124 151.092 299.253 153.687L301.757 161.285ZM325.285 157.824C338.127 157.824 348.735 160.29 357.286 165.016L361.155 158.014C351.151 152.485 339.136 149.824 325.285 149.824V157.824ZM357.322 165.036C366.117 169.777 372.672 175.927 377.144 183.455L384.022 179.369C378.729 170.459 371.042 163.344 361.119 157.994L357.322 165.036ZM377.153 183.47C381.672 191.001 383.907 199 383.907 207.535H391.907C391.907 197.516 389.26 188.099 384.013 179.354L377.153 183.47ZM387.907 203.535H364.47V211.535H387.907V203.535ZM368.47 207.535C368.47 200.277 366.916 193.691 363.694 187.892L356.701 191.778C359.176 196.232 360.47 201.447 360.47 207.535H368.47ZM363.707 187.916C360.436 181.934 355.496 177.32 349.067 174.06L345.449 181.196C350.575 183.795 354.262 187.319 356.688 191.754L363.707 187.916ZM349.106 174.081C342.589 170.684 334.578 169.111 325.285 169.111V177.111C333.733 177.111 340.371 178.549 345.409 181.175L349.106 174.081ZM325.285 169.111C316.537 169.111 308.998 170.423 302.854 173.265L306.213 180.526C310.974 178.323 317.268 177.111 325.285 177.111V169.111ZM302.854 173.265C296.825 176.055 292.099 179.947 288.931 185.035L295.722 189.264C297.925 185.725 301.337 182.782 306.213 180.526L302.854 173.265ZM288.902 185.082C285.885 190.079 284.42 195.731 284.42 201.92H292.42C292.42 197.041 293.559 192.846 295.75 189.217L288.902 185.082ZM284.42 201.92C284.42 206.232 285.315 210.27 287.162 213.963L294.317 210.385C293.071 207.893 292.42 205.095 292.42 201.92H284.42ZM287.22 214.076C289.165 217.673 292.053 220.884 295.724 223.75L300.647 217.443C297.645 215.101 295.569 212.697 294.258 210.272L287.22 214.076ZM295.761 223.778C299.516 226.639 304.143 229.195 309.57 231.484L312.68 224.113C307.69 222.008 303.691 219.763 300.61 217.415L295.761 223.778ZM309.591 231.493C315.071 233.769 321.541 235.935 328.975 238.001L331.116 230.292C323.902 228.289 317.758 226.223 312.659 224.105L309.591 231.493ZM328.959 237.996C338.891 240.799 347.375 243.899 354.445 247.277L357.893 240.059C350.315 236.438 341.383 233.19 331.132 230.297L328.959 237.996ZM354.445 247.277C361.493 250.645 367.152 254.379 371.51 258.436L376.961 252.581C371.878 247.849 365.494 243.69 357.893 240.059L354.445 247.277ZM371.562 258.484C375.953 262.429 379.124 266.866 381.157 271.802L388.554 268.756C386.029 262.625 382.121 257.215 376.908 252.533L371.562 258.484ZM381.185 271.868C383.295 276.743 384.396 282.374 384.396 288.834H392.396C392.396 281.459 391.136 274.72 388.526 268.69L381.185 271.868ZM384.396 288.834C384.396 295.522 383.047 301.451 380.423 306.698L387.579 310.276C390.814 303.805 392.396 296.631 392.396 288.834H384.396ZM380.423 306.698C377.78 311.986 373.994 316.522 369.005 320.319L373.85 326.685C379.766 322.182 384.363 316.708 387.579 310.276L380.423 306.698ZM369.005 320.319C363.994 324.133 357.894 327.149 350.633 329.312L352.916 336.979C360.954 334.585 367.956 331.171 373.85 326.685L369.005 320.319ZM350.659 329.304C343.514 331.379 335.434 332.441 326.384 332.441V340.441C336.051 340.441 344.899 339.307 352.89 336.987L350.659 329.304ZM326.384 332.441C318.539 332.441 310.812 331.355 303.191 329.177L300.993 336.87C309.322 339.249 317.789 340.441 326.384 340.441V332.441ZM303.201 329.18C295.716 327.02 288.916 323.789 282.779 319.493L278.192 326.046C285.075 330.865 292.68 334.47 300.982 336.867L303.201 329.18ZM282.799 319.506C276.824 315.271 272.048 310.076 268.434 303.903L261.53 307.945C265.729 315.118 271.289 321.153 278.172 326.033L282.799 319.506ZM268.463 303.953C265.025 297.881 263.245 290.766 263.245 282.486H255.245C255.245 291.948 257.29 300.458 261.502 307.895L268.463 303.953ZM259.245 286.486H282.683V278.486H259.245V286.486ZM278.683 282.486C278.683 289.104 279.964 295.033 282.699 300.126L289.747 296.341C287.762 292.645 286.683 288.075 286.683 282.486H278.683ZM282.714 300.153C285.372 305.012 289.005 309.055 293.572 312.253L298.16 305.699C294.59 303.199 291.793 300.081 289.732 296.313L282.714 300.153ZM293.603 312.274C298.156 315.398 303.259 317.697 308.877 319.189L310.931 311.457C306.133 310.183 301.877 308.25 298.13 305.678L293.603 312.274ZM308.948 319.207C314.565 320.59 320.38 321.276 326.384 321.276V313.276C320.995 313.276 315.823 312.661 310.86 311.439L308.948 319.207ZM326.384 321.276C334.949 321.276 342.444 320.092 348.743 317.572L345.772 310.144C340.679 312.182 334.257 313.276 326.384 313.276V321.276ZM348.743 317.572C355.027 315.059 360.029 311.362 363.486 306.37L356.908 301.816C354.506 305.287 350.882 308.101 345.772 310.144L348.743 317.572ZM363.456 306.412C367.003 301.427 368.714 295.59 368.714 289.078H360.714C360.714 294.123 359.414 298.295 356.938 301.774L363.456 306.412Z" fill="white"/>
</g>
<g style="mix-blend-mode:hard-light" opacity="0.1" filter="url(#filter4_f_0_1)">
<ellipse cx="246.554" cy="250.006" rx="273.701" ry="265.49" transform="rotate(0.57092 246.554 250.006)" fill="#FF0000" fill-opacity="0.108"/>
</g>
<g style="mix-blend-mode:hard-light" filter="url(#filter5_f_0_1)">
<path d="M471.627 252.249C470.427 372.689 368.771 469.476 244.38 468.237C119.989 466.997 20.2813 368.203 21.4815 247.763C22.6817 127.324 124.338 30.5361 248.729 31.7757C373.12 33.0152 472.827 131.809 471.627 252.249Z" stroke="#FF5C00" stroke-width="6"/>
</g>
<g style="mix-blend-mode:hard-light" filter="url(#filter6_f_0_1)">
<path d="M470.627 252.239C469.433 372.098 368.257 468.471 244.39 467.237C120.522 466.003 21.2871 367.633 22.4815 247.773C23.6758 127.914 124.851 31.5413 248.719 32.7756C372.587 34.0099 471.822 132.38 470.627 252.239Z" stroke="#FF0000" stroke-width="8"/>
</g>
<g style="mix-blend-mode:hard-light" filter="url(#filter7_ddi_0_1)">
<path d="M471.627 252.249C470.427 372.689 368.771 469.476 244.38 468.237C119.989 466.997 20.2813 368.203 21.4815 247.763C22.6817 127.324 124.338 30.5361 248.729 31.7757C373.12 33.0152 472.827 131.809 471.627 252.249Z" stroke="#FF0000" stroke-opacity="0.2" stroke-width="6"/>
</g>
<g filter="url(#filter8_f_0_1)">
<path d="M472.627 252.259C471.421 373.28 369.284 470.482 244.37 469.237C119.455 467.992 19.2756 368.774 20.4816 247.753C21.6875 126.733 123.824 29.531 248.739 30.7757C373.653 32.0204 473.833 131.238 472.627 252.259Z" stroke="#FF9983" stroke-width="4"/>
</g>
<g filter="url(#filter9_f_0_1)">
<path d="M472.127 252.254C470.924 372.984 369.027 469.979 244.375 468.737C119.722 467.495 19.7785 368.489 20.9815 247.758C22.1846 127.028 124.081 30.0335 248.734 31.2757C373.387 32.5178 473.33 131.524 472.127 252.254Z" stroke="white" stroke-width="5"/>
</g>
</g>
<defs>
<filter id="filter0_f_0_1" x="89.2614" y="141.116" width="311.842" height="208.034" filterUnits="userSpaceOnUse" color-interpolation-filters="sRGB">
<feFlood flood-opacity="0" result="BackgroundImageFix"/>
<feBlend mode="normal" in="SourceGraphic" in2="BackgroundImageFix" result="shape"/>
<feGaussianBlur stdDeviation="6.35417" result="effect1_foregroundBlur_0_1"/>
</filter>
<filter id="filter1_ddi_0_1" x="82.9489" y="152.512" width="319.467" height="215.659" filterUnits="userSpaceOnUse" color-interpolation-filters="sRGB">
<feFlood flood-opacity="0" result="BackgroundImageFix"/>
<feColorMatrix in="SourceAlpha" type="matrix" values="0 0 0 0 0 0 0 0 0 0 0 0 0 0 0 0 0 0 127 0" result="hardAlpha"/>
<feOffset dy="8.26042"/>
<feGaussianBlur stdDeviation="3.17708"/>
<feColorMatrix type="matrix" values="0 0 0 0 0.15 0 0 0 0 0 0 0 0 0 0 0 0 0 0.7 0"/>
<feBlend mode="multiply" in2="BackgroundImageFix" result="effect1_dropShadow_0_1"/>
<feColorMatrix in="SourceAlpha" type="matrix" values="0 0 0 0 0 0 0 0 0 0 0 0 0 0 0 0 0 0 127 0" result="hardAlpha"/>
<feOffset dy="12.7083"/>
<feGaussianBlur stdDeviation="8.26042"/>
<feColorMatrix type="matrix" values="0 0 0 0 0.8 0 0 0 0 0.19 0 0 0 0 0.19 0 0 0 1 0"/>
<feBlend mode="color-dodge" in2="effect1_dropShadow_0_1" result="effect2_dropShadow_0_1"/>
<feBlend mode="normal" in="SourceGraphic" in2="effect2_dropShadow_0_1" result="shape"/>
<feColorMatrix in="SourceAlpha" type="matrix" values="0 0 0 0 0 0 0 0 0 0 0 0 0 0 0 0 0 0 127 0" result="hardAlpha"/>
<feOffset dx="-0.826042" dy="1.65208"/>
<feGaussianBlur stdDeviation="0.413021"/>
<feComposite in2="hardAlpha" operator="arithmetic" k2="-1" k3="1"/>
<feColorMatrix type="matrix" values="0 0 0 0 1 0 0 0 0 1 0 0 0 0 1 0 0 0 0.5 0"/>
<feBlend mode="normal" in2="shape" result="effect3_innerShadow_0_1"/>
</filter>
<filter id="filter2_f_0_1" x="100.699" y="152.553" width="288.967" height="185.159" filterUnits="userSpaceOnUse" color-interpolation-filters="sRGB">
<feFlood flood-opacity="0" result="BackgroundImageFix"/>
<feBlend mode="normal" in="SourceGraphic" in2="BackgroundImageFix" result="shape"/>
<feGaussianBlur stdDeviation="0.635417" result="effect1_foregroundBlur_0_1"/>
</filter>
<filter id="filter3_f_0_1" x="101.123" y="152.977" width="288.12" height="184.312" filterUnits="userSpaceOnUse" color-interpolation-filters="sRGB">
<feFlood flood-opacity="0" result="BackgroundImageFix"/>
<feBlend mode="normal" in="SourceGraphic" in2="BackgroundImageFix" result="shape"/>
<feGaussianBlur stdDeviation="0.423611" result="effect1_foregroundBlur_0_1"/>
</filter>
<filter id="filter4_f_0_1" x="-43.3459" y="-31.6845" width="579.801" height="563.382" filterUnits="userSpaceOnUse" color-interpolation-filters="sRGB">
<feFlood flood-opacity="0" result="BackgroundImageFix"/>
<feBlend mode="normal" in="SourceGraphic" in2="BackgroundImageFix" result="shape"/>
<feGaussianBlur stdDeviation="8.1" result="effect1_foregroundBlur_0_1"/>
</filter>
<filter id="filter5_f_0_1" x="2.27082" y="12.5639" width="488.567" height="474.885" filterUnits="userSpaceOnUse" color-interpolation-filters="sRGB">
<feFlood flood-opacity="0" result="BackgroundImageFix"/>
<feBlend mode="normal" in="SourceGraphic" in2="BackgroundImageFix" result="shape"/>
<feGaussianBlur stdDeviation="8.1" result="effect1_foregroundBlur_0_1"/>
</filter>
<filter id="filter6_f_0_1" x="13.0708" y="23.3639" width="466.967" height="453.285" filterUnits="userSpaceOnUse" color-interpolation-filters="sRGB">
<feFlood flood-opacity="0" result="BackgroundImageFix"/>
<feBlend mode="normal" in="SourceGraphic" in2="BackgroundImageFix" result="shape"/>
<feGaussianBlur stdDeviation="2.7" result="effect1_foregroundBlur_0_1"/>
</filter>
<filter id="filter7_ddi_0_1" x="11.4508" y="27.1439" width="470.207" height="456.525" filterUnits="userSpaceOnUse" color-interpolation-filters="sRGB">
<feFlood flood-opacity="0" result="BackgroundImageFix"/>
<feColorMatrix in="SourceAlpha" type="matrix" values="0 0 0 0 0 0 0 0 0 0 0 0 0 0 0 0 0 0 127 0" result="hardAlpha"/>
<feOffset dy="6.5"/>
<feGaussianBlur stdDeviation="2.5"/>
<feColorMatrix type="matrix" values="0 0 0 0 0.15 0 0 0 0 0 0 0 0 0 0 0 0 0 0.7 0"/>
<feBlend mode="multiply" in2="BackgroundImageFix" result="effect1_dropShadow_0_1"/>
<feColorMatrix in="SourceAlpha" type="matrix" values="0 0 0 0 0 0 0 0 0 0 0 0 0 0 0 0 0 0 127 0" result="hardAlpha"/>
<feOffset dy="5.4"/>
<feGaussianBlur stdDeviation="3.51"/>
<feColorMatrix type="matrix" values="0 0 0 0 0.8 0 0 0 0 0.19 0 0 0 0 0.19 0 0 0 1 0"/>
<feBlend mode="color-dodge" in2="effect1_dropShadow_0_1" result="effect2_dropShadow_0_1"/>
<feBlend mode="normal" in="SourceGraphic" in2="effect2_dropShadow_0_1" result="shape"/>
<feColorMatrix in="SourceAlpha" type="matrix" values="0 0 0 0 0 0 0 0 0 0 0 0 0 0 0 0 0 0 127 0" result="hardAlpha"/>
<feOffset dx="-0.65" dy="1.3"/>
<feGaussianBlur stdDeviation="0.325"/>
<feComposite in2="hardAlpha" operator="arithmetic" k2="-1" k3="1"/>
<feColorMatrix type="matrix" values="0 0 0 0 1 0 0 0 0 1 0 0 0 0 1 0 0 0 0.5 0"/>
<feBlend mode="normal" in2="shape" result="effect3_innerShadow_0_1"/>
</filter>
<filter id="filter8_f_0_1" x="17.4708" y="27.7639" width="458.167" height="444.485" filterUnits="userSpaceOnUse" color-interpolation-filters="sRGB">
<feFlood flood-opacity="0" result="BackgroundImageFix"/>
<feBlend mode="normal" in="SourceGraphic" in2="BackgroundImageFix" result="shape"/>
<feGaussianBlur stdDeviation="0.5" result="effect1_foregroundBlur_0_1"/>
</filter>
<filter id="filter9_f_0_1" x="17.8042" y="28.0972" width="457.5" height="443.818" filterUnits="userSpaceOnUse" color-interpolation-filters="sRGB">
<feFlood flood-opacity="0" result="BackgroundImageFix"/>
<feBlend mode="normal" in="SourceGraphic" in2="BackgroundImageFix" result="shape"/>
<feGaussianBlur stdDeviation="0.333333" result="effect1_foregroundBlur_0_1"/>
</filter>
<clipPath id="clip0_0_1">
<rect width="500" height="500" fill="white"/>
</clipPath>
</defs>
</svg>
